<svg xmlns="http://www.w3.org/2000/svg" xmlns:xlink="http://www.w3.org/1999/xlink" width="1080" zoomAndPan="magnify" viewBox="0 0 810 809.999993" height="1080" preserveAspectRatio="xMidYMid meet" version="1.2"><defs><clipPath id="877336f91d"><path d="M 602 756 L 670 756 L 670 795.621094 L 602 795.621094 Z M 602 756 "/></clipPath></defs><g id="81bf1264ca"><path style=" stroke:none;fill-rule:nonzero;fill:#b0c4ff;fill-opacity:1;" d="M 681.648438 385.914062 L 681.554688 413.394531 C 681.527344 420.832031 676.65625 428.269531 666.890625 433.953125 L 322.546875 634 C 302.890625 645.425781 270.894531 645.425781 251.117188 634 L 61.90625 524.800781 C 51.957031 519.058594 46.96875 511.5 46.996094 503.972656 L 47.089844 476.519531 C 47.089844 469.054688 51.957031 461.617188 61.753906 455.933594 L 406.097656 255.886719 C 425.753906 244.457031 457.71875 244.457031 477.527344 255.886719 L 666.738281 365.085938 C 676.6875 370.828125 681.648438 378.386719 681.648438 385.914062 Z M 681.648438 385.914062 "/><path style=" stroke:none;fill-rule:nonzero;fill:#5789dc;fill-opacity:1;" d="M 666.964844 406.445312 L 322.613281 606.507812 C 302.957031 617.925781 270.980469 617.925781 251.195312 606.507812 L 61.984375 497.292969 C 52.027344 491.546875 47.054688 484.003906 47.078125 476.472656 L 46.996094 503.96875 C 46.976562 511.5 51.949219 519.042969 61.90625 524.789062 L 251.117188 634.003906 C 270.90625 645.421875 302.878906 645.421875 322.535156 634.003906 L 666.882812 433.941406 C 676.648438 428.269531 681.539062 420.84375 681.558594 413.40625 L 681.636719 385.910156 C 681.617188 393.347656 676.730469 400.773438 666.964844 406.445312 Z M 666.964844 406.445312 "/><path style=" stroke:none;fill-rule:nonzero;fill:#b0c4ff;fill-opacity:1;" d="M 666.730469 365.089844 C 686.515625 376.507812 686.621094 395.027344 666.964844 406.445312 L 322.613281 606.507812 C 302.957031 617.925781 270.980469 617.925781 251.195312 606.507812 L 61.984375 497.292969 C 42.199219 485.875 42.09375 467.355469 61.75 455.9375 L 406.101562 255.875 C 425.757812 244.457031 457.730469 244.457031 477.515625 255.875 Z M 666.730469 365.089844 "/><path style=" stroke:none;fill-rule:nonzero;fill:#ffffff;fill-opacity:1;" d="M 652.09375 373.59375 C 663.726562 380.304688 663.789062 391.230469 652.230469 397.945312 L 307.882812 598.003906 C 296.328125 604.71875 277.464844 604.71875 265.832031 598.003906 L 76.617188 488.789062 C 64.988281 482.078125 64.925781 471.152344 76.480469 464.441406 L 420.832031 264.378906 C 432.386719 257.664062 451.25 257.664062 462.882812 264.378906 Z M 652.09375 373.59375 "/><path style=" stroke:none;fill-rule:nonzero;fill:#dde9fe;fill-opacity:1;" d="M 467.578125 247.949219 C 464.875 240.078125 459.996094 233.105469 453.621094 227.753906 C 395.769531 179.203125 301.777344 208.78125 227.523438 271.285156 C 194.007812 294.300781 199.765625 358.714844 207.109375 488.792969 C 230.0625 570.675781 497.917969 492.449219 488.4375 408.960938 C 483.191406 340.097656 479.917969 283.949219 467.578125 247.949219 Z M 467.578125 247.949219 "/><path style=" stroke:none;fill-rule:nonzero;fill:#dde9fe;fill-opacity:1;" d="M 207.097656 488.800781 C 206.609375 480.414062 206.152344 472.289062 205.722656 464.445312 C 199.195312 350.601562 196.191406 292.820312 227.535156 271.269531 C 291.171875 217.695312 369.292969 188.335938 426.714844 211.601562 C 436.335938 215.464844 445.351562 220.816406 453.625 227.742188 C 460.007812 233.09375 464.875 240.078125 467.566406 247.945312 C 479.933594 283.949219 483.195312 340.097656 488.433594 408.953125 C 497.910156 492.433594 230.054688 570.679688 207.097656 488.800781 Z M 207.097656 488.800781 "/><path style=" stroke:none;fill-rule:nonzero;fill:#b3c9e2;fill-opacity:1;" d="M 404.921875 210.78125 L 443.324219 315.714844 C 444.570312 319.121094 444.183594 322.910156 442.277344 325.992188 L 431.9375 342.710938 C 430.300781 345.351562 429.773438 348.527344 430.464844 351.554688 L 433.824219 366.273438 C 434.246094 368.113281 434.222656 370.042969 433.75 371.871094 C 421.78125 418.332031 418.285156 441.132812 396.105469 466.203125 C 412.921875 385.066406 411.367188 301.882812 404.921875 210.78125 Z M 404.921875 210.78125 "/><path style=" stroke:none;fill-rule:nonzero;fill:#b3c9e2;fill-opacity:1;" d="M 287.203125 236.457031 C 284.164062 270.011719 290.71875 310.910156 302.945312 356.160156 C 303.640625 358.746094 306.109375 360.464844 308.777344 360.226562 L 325.148438 358.773438 C 328.4375 358.480469 331.25 361.121094 331.160156 364.421875 L 330.558594 386.359375 C 330.527344 387.429688 330.804688 388.488281 331.355469 389.402344 C 349.148438 418.949219 370.859375 444.417969 396.105469 466.203125 Z M 287.203125 236.457031 "/><path style=" stroke:none;fill-rule:nonzero;fill:#c7d8ef;fill-opacity:1;" d="M 207.097656 488.800781 C 206.609375 480.414062 206.152344 472.289062 205.722656 464.445312 C 256.246094 459.78125 309.207031 474.0625 360.90625 476.925781 C 370.464844 477.4375 380.941406 477.269531 388.273438 471.113281 C 390.734375 469.054688 392.679688 466.421875 395.054688 464.246094 C 401.46875 458.351562 410.457031 456.347656 418.042969 452.082031 C 425.65625 447.820312 431.753906 441.378906 437.738281 435.054688 C 441.515625 431.046875 445.550781 426.242188 444.75 420.804688 C 444.035156 416.050781 439.625 411.875 440.769531 407.179688 C 442.402344 400.398438 453.996094 399.652344 454.941406 392.699219 C 455.6875 387.289062 448.902344 382.941406 449.703125 377.53125 C 450.105469 374.925781 452.164062 372.953125 453.855469 370.921875 C 461.066406 362.308594 462.5 349.257812 457.316406 339.269531 C 455.3125 335.40625 452.421875 331.941406 451.277344 327.765625 C 450.074219 323.269531 451.046875 318.519531 451.621094 313.882812 C 453.480469 298.34375 450.363281 282.261719 442.863281 268.550781 C 432.269531 249.292969 417.613281 228.457031 426.714844 211.601562 C 436.335938 215.464844 445.351562 220.816406 453.625 227.742188 C 460.007812 233.09375 464.875 240.078125 467.566406 247.945312 C 479.933594 283.949219 483.195312 340.097656 488.433594 408.953125 C 497.910156 492.433594 230.054688 570.679688 207.097656 488.800781 Z M 207.097656 488.800781 "/><path style=" stroke:none;fill-rule:nonzero;fill:#5789dc;fill-opacity:1;" d="M 267.710938 398.148438 C 266.917969 398.148438 266.140625 397.777344 265.648438 397.082031 C 229.269531 345.777344 262.363281 312.117188 269.496094 305.789062 C 257.539062 253.664062 272.386719 224.855469 287.039062 209.832031 C 307.679688 188.667969 341.800781 181.226562 380.628906 189.402344 C 403.738281 194.265625 423.355469 209.410156 434.464844 230.953125 L 454.199219 269.230469 C 454.835938 270.472656 454.351562 271.996094 453.109375 272.632812 C 451.867188 273.273438 450.347656 272.785156 449.707031 271.546875 L 429.972656 233.265625 C 419.566406 213.082031 401.199219 198.894531 379.589844 194.34375 C 342.480469 186.523438 310.0625 193.457031 290.65625 213.355469 C 270.710938 233.808594 265.214844 265.890625 274.761719 306.132812 C 274.992188 307.105469 274.628906 308.121094 273.835938 308.726562 C 272.125 310.035156 232.347656 341.378906 269.769531 394.160156 C 270.574219 395.300781 270.308594 396.875 269.167969 397.683594 C 268.726562 397.996094 268.21875 398.148438 267.710938 398.148438 Z M 267.710938 398.148438 "/><path style=" stroke:none;fill-rule:nonzero;fill:#5789dc;fill-opacity:1;" d="M 302.101562 377.386719 C 302.058594 377.386719 302.011719 377.386719 301.964844 377.382812 C 300.574219 377.3125 299.503906 376.125 299.574219 374.730469 C 302.289062 322.953125 292.804688 310.019531 286.910156 306.914062 C 280.636719 303.617188 273.90625 308.671875 273.84375 308.722656 C 272.734375 309.570312 271.152344 309.359375 270.300781 308.253906 C 269.449219 307.148438 269.660156 305.5625 270.769531 304.710938 C 271.148438 304.425781 280.144531 297.648438 289.265625 302.445312 C 301.636719 308.957031 306.804688 333.367188 304.621094 374.996094 C 304.550781 376.34375 303.4375 377.386719 302.101562 377.386719 Z M 302.101562 377.386719 "/><path style=" stroke:none;fill-rule:nonzero;fill:#f7b2b2;fill-opacity:1;" d="M 301.824219 197.246094 L 299.234375 224.863281 C 310.339844 241.539062 328.777344 254.195312 350.78125 260.277344 C 358.9375 262.53125 367.800781 262.179688 375.179688 258.039062 C 386.625 251.613281 389.894531 239.6875 383.902344 221.535156 L 371.546875 173.617188 L 317.820312 167.90625 L 300.4375 159.910156 L 289.496094 170.601562 Z M 301.824219 197.246094 "/><path style=" stroke:none;fill-rule:nonzero;fill:#c7d8ef;fill-opacity:1;" d="M 300.167969 214.875 L 290.136719 227.195312 C 288.003906 229.8125 286.925781 233.152344 287.21875 236.511719 C 287.4375 239.023438 287.917969 241.53125 288.550781 242.5625 C 300.851562 262.585938 320.210938 277.226562 346.34375 286.703125 C 350.410156 288.179688 354.945312 286.285156 356.765625 282.367188 L 366.414062 261.589844 C 341.75 262.425781 296.363281 226.753906 300.167969 214.875 Z M 300.167969 214.875 "/><path style=" stroke:none;fill-rule:nonzero;fill:#c7d8ef;fill-opacity:1;" d="M 382.917969 197.25 C 384.933594 221.617188 386.160156 243.851562 366.414062 261.589844 C 373.558594 263.757812 379.523438 267.539062 384.09375 273.242188 C 387.316406 277.261719 393.648438 276.714844 396.21875 272.25 C 404.382812 258.058594 407.339844 237.839844 405.257812 212.4375 C 405.085938 210.335938 404 208.398438 402.316406 207.128906 Z M 382.917969 197.25 "/><path style=" stroke:none;fill-rule:nonzero;fill:#a1b9d1;fill-opacity:1;" d="M 366.414062 261.589844 L 356.765625 282.367188 C 367.078125 286.214844 376.902344 284.085938 386.160156 275.007812 L 371.460938 261.589844 Z M 366.414062 261.589844 "/><path style=" stroke:none;fill-rule:nonzero;fill:#a1b9d1;fill-opacity:1;" d="M 378.035156 281.117188 L 370.253906 275.953125 L 364.316406 284.109375 L 374.78125 390.09375 C 374.875 391.070312 375.210938 392.007812 375.753906 392.824219 L 383.332031 404.1875 C 386.125 408.375 392.519531 407.453125 394.019531 402.652344 L 399.855469 383.941406 C 400.167969 382.949219 400.210938 381.890625 399.988281 380.875 Z M 378.035156 281.117188 "/><path style=" stroke:none;fill-rule:nonzero;fill:#f7b2b2;fill-opacity:1;" d="M 411.496094 108.703125 L 411.078125 110.4375 C 430.292969 185.359375 421.925781 224.121094 383.898438 221.492188 C 346.917969 218.019531 321.132812 197.765625 301.855469 169.410156 L 272.316406 127.328125 C 272.316406 127.328125 305.355469 82.824219 307.8125 81.453125 C 310.273438 80.082031 381.148438 80.332031 383.816406 82.636719 Z M 411.496094 108.703125 "/><path style=" stroke:none;fill-rule:nonzero;fill:#eaa7a7;fill-opacity:1;" d="M 272.328125 127.34375 L 301.867188 169.433594 C 321.132812 197.753906 346.917969 218.035156 383.898438 221.46875 C 408.101562 223.128906 420.261719 208.054688 420.964844 177.539062 C 417.070312 198.175781 405.296875 208.195312 385.332031 206.804688 C 348.339844 203.3125 322.566406 183.09375 303.289062 154.710938 L 278.359375 119.207031 C 274.746094 124.050781 272.328125 127.34375 272.328125 127.34375 Z M 272.328125 127.34375 "/><path style=" stroke:none;fill-rule:nonzero;fill:#353437;fill-opacity:1;" d="M 268.339844 60.84375 C 227.925781 96.898438 253.621094 165.066406 301.613281 196.070312 L 302.1875 175.058594 C 302.371094 168.363281 300.617188 161.640625 296.71875 156.226562 C 291.558594 149.0625 290.15625 142.789062 293.4375 137.628906 C 295.914062 133.730469 300.71875 131.648438 305.0625 133.09375 C 305.542969 133.257812 306.007812 133.453125 306.453125 133.679688 C 310.382812 135.695312 315.21875 134.695312 317.144531 130.679688 C 321.597656 121.375 323.007812 110.699219 320.585938 98.296875 L 276.011719 52.644531 Z M 268.339844 60.84375 "/><path style=" stroke:none;fill-rule:nonzero;fill:#29282b;fill-opacity:1;" d="M 301.589844 196.078125 L 301.800781 187.425781 C 262.125 153.613281 244.25 94.335938 281.015625 61.519531 L 282.796875 59.605469 L 275.992188 52.628906 L 268.324219 60.851562 C 227.953125 96.917969 253.621094 165.058594 301.589844 196.078125 Z M 301.589844 196.078125 "/><path style=" stroke:none;fill-rule:nonzero;fill:#353437;fill-opacity:1;" d="M 326.335938 99.101562 C 341.109375 100.328125 354.792969 103.472656 367.246094 108.777344 C 377.867188 113.304688 389.535156 115.015625 400.726562 112.613281 C 414.988281 109.546875 423.34375 101.960938 421.84375 85.535156 C 420.804688 74.191406 415.554688 63.617188 407.8125 55.40625 C 376.570312 22.265625 338.789062 14.113281 292.75 28.460938 C 277.765625 33.667969 270.066406 41.398438 268.210938 51.769531 C 266.90625 59.070312 269.144531 66.652344 273.578125 72.574219 C 282.210938 84.117188 296.695312 91.136719 313.375 96.457031 C 317.59375 97.804688 321.945312 98.738281 326.335938 99.101562 Z M 326.335938 99.101562 "/><path style=" stroke:none;fill-rule:nonzero;fill:#29282b;fill-opacity:1;" d="M 273.566406 72.597656 C 282.199219 84.144531 296.683594 91.15625 313.398438 96.46875 C 317.59375 97.777344 321.960938 98.761719 326.328125 99.097656 C 341.128906 100.328125 354.800781 103.472656 367.265625 108.785156 C 377.878906 113.304688 389.523438 115.046875 400.714844 112.617188 C 409.011719 110.832031 415.320312 107.511719 418.828125 101.746094 C 416.84375 102.515625 414.710938 103.136719 412.375 103.617188 C 401.183594 106.042969 389.539062 104.304688 378.925781 99.78125 C 366.460938 94.472656 352.789062 91.324219 337.988281 90.09375 C 333.621094 89.761719 329.261719 88.832031 325.058594 87.464844 C 308.34375 82.152344 293.859375 75.140625 285.226562 63.59375 C 280.792969 57.664062 278.546875 50.101562 279.886719 42.78125 C 280.625 38.695312 282.277344 35.089844 284.871094 31.792969 C 275.023438 36.75 269.730469 43.429688 268.226562 51.785156 C 266.878906 59.046875 269.136719 66.667969 273.566406 72.597656 Z M 273.566406 72.597656 "/><path style=" stroke:none;fill-rule:nonzero;fill:#4075c1;fill-opacity:1;" d="M 443.46875 259.050781 C 440.574219 265.308594 441.460938 275.042969 445.433594 280.78125 C 449.414062 286.53125 454.984375 286.125 457.878906 279.867188 C 460.773438 273.609375 459.886719 263.890625 455.902344 258.136719 C 451.929688 252.398438 446.359375 252.796875 443.46875 259.050781 Z M 443.46875 259.050781 "/><path style=" stroke:none;fill-rule:nonzero;fill:#4075c1;fill-opacity:1;" d="M 298.527344 364.679688 C 295.253906 368.515625 293.960938 375.546875 295.625 380.371094 C 297.296875 385.207031 301.300781 386.019531 304.574219 382.179688 C 307.84375 378.34375 309.140625 371.324219 307.46875 366.488281 C 305.800781 361.660156 301.800781 360.839844 298.527344 364.679688 Z M 298.527344 364.679688 "/><path style=" stroke:none;fill-rule:nonzero;fill:#4075c1;fill-opacity:1;" d="M 278.746094 397.691406 C 277.355469 392.84375 272.207031 387.878906 267.265625 386.601562 C 262.308594 385.324219 259.421875 388.210938 260.8125 393.058594 C 262.203125 397.90625 267.339844 402.863281 272.296875 404.140625 C 277.242188 405.417969 280.136719 402.539062 278.746094 397.691406 Z M 278.746094 397.691406 "/><path style=" stroke:none;fill-rule:nonzero;fill:#dde9fe;fill-opacity:1;" d="M 600.996094 75.429688 C 601.117188 112.617188 574.929688 157.933594 542.542969 176.617188 C 537.855469 179.339844 533.320312 181.335938 528.933594 182.632812 L 462.828125 206.636719 C 462.4375 206.789062 462.132812 206.757812 461.890625 206.609375 L 450.886719 200.230469 C 450.007812 199.714844 450.308594 197.507812 451.824219 196.328125 L 484.570312 170.390625 C 477.164062 163.40625 472.75 151.917969 472.6875 136.742188 C 472.597656 99.527344 498.785156 54.207031 531.140625 35.523438 C 547.441406 26.121094 562.230469 25.246094 572.875 31.445312 L 583.125 37.398438 C 583.277344 37.488281 583.398438 37.582031 583.546875 37.640625 C 594.285156 43.65625 600.9375 56.746094 600.996094 75.429688 Z M 600.996094 75.429688 "/><path style=" stroke:none;fill-rule:nonzero;fill:#b3c9e2;fill-opacity:1;" d="M 495.570312 176.78125 L 462.8125 202.722656 C 461.316406 203.90625 461.027344 206.09375 461.898438 206.605469 L 450.898438 200.226562 C 450.003906 199.714844 450.316406 197.503906 451.8125 196.34375 L 484.570312 170.398438 Z M 495.570312 176.78125 "/><path style=" stroke:none;fill-rule:nonzero;fill:#c7d8ef;fill-opacity:1;" d="M 583.886719 37.824219 C 573.222656 31.644531 558.449219 32.515625 542.160156 41.929688 C 509.785156 60.601562 483.609375 105.90625 483.699219 143.140625 C 483.742188 158.308594 488.160156 169.796875 495.570312 176.78125 L 484.570312 170.398438 C 477.160156 163.394531 472.742188 151.929688 472.699219 136.738281 C 472.585938 99.527344 498.78125 54.199219 531.136719 35.527344 C 547.449219 26.113281 562.222656 25.242188 572.886719 31.441406 Z M 583.886719 37.824219 "/><path style=" stroke:none;fill-rule:nonzero;fill:#dde9fe;fill-opacity:1;" d="M 542.152344 41.921875 C 574.535156 23.230469 600.890625 38.214844 600.996094 75.429688 C 601.101562 112.628906 574.917969 157.941406 542.535156 176.632812 C 537.847656 179.335938 533.316406 181.332031 528.9375 182.644531 L 462.820312 206.625 C 460.941406 207.300781 460.929688 204.210938 462.8125 202.730469 L 495.574219 176.789062 C 488.160156 169.789062 483.746094 158.320312 483.703125 143.132812 C 483.597656 105.914062 509.785156 60.605469 542.152344 41.921875 Z M 542.152344 41.921875 "/><path style=" stroke:none;fill-rule:nonzero;fill:#ffffff;fill-opacity:1;" d="M 542.050781 64.328125 C 564.15625 51.566406 582.136719 61.8125 582.210938 87.199219 C 582.28125 112.605469 564.417969 143.539062 542.308594 156.300781 C 520.203125 169.058594 502.222656 158.816406 502.148438 133.410156 C 502.078125 108.023438 519.941406 77.085938 542.050781 64.328125 Z M 542.050781 64.328125 "/><path style=" stroke:none;fill-rule:nonzero;fill:#749af1;fill-opacity:1;" d="M 536.972656 122.980469 L 547.027344 117.175781 C 545.792969 120.632812 543.300781 123.941406 540.414062 125.609375 C 536.300781 127.984375 532.960938 126.082031 532.949219 121.355469 C 532.941406 118.046875 534.558594 114.238281 536.941406 111.429688 L 536.957031 118.175781 Z M 536.972656 122.980469 "/><path style=" stroke:none;fill-rule:nonzero;fill:#749af1;fill-opacity:1;" d="M 543.820312 107.464844 C 545.175781 107.496094 546.285156 108.132812 546.996094 109.277344 L 543.828125 111.105469 Z M 543.820312 107.464844 "/><path style=" stroke:none;fill-rule:nonzero;fill:#749af1;fill-opacity:1;" d="M 540.304688 82.59375 C 542.207031 81.496094 543.75 82.382812 543.753906 84.5625 L 543.820312 107.464844 L 543.828125 111.105469 L 536.949219 115.078125 L 536.957031 118.175781 L 536.941406 111.429688 L 536.875 88.53125 C 536.867188 86.355469 538.40625 83.6875 540.304688 82.59375 Z M 540.304688 82.59375 "/><path style=" stroke:none;fill-rule:nonzero;fill:#749af1;fill-opacity:1;" d="M 562.753906 100.183594 C 564.648438 99.089844 566.199219 99.96875 566.203125 102.148438 C 566.210938 104.339844 564.671875 106.992188 562.777344 108.085938 L 547.027344 117.175781 L 536.972656 122.980469 L 536.957031 118.175781 L 536.949219 115.078125 L 543.828125 111.105469 L 546.996094 109.277344 Z M 562.753906 100.183594 "/><path style=" stroke:none;fill-rule:nonzero;fill:#dde9fe;fill-opacity:1;" d="M 237.269531 202.800781 C 237.296875 210.628906 231.824219 220.09375 225.023438 224.023438 L 83.46875 305.738281 C 80.050781 307.703125 76.964844 307.917969 74.726562 306.585938 L 74.394531 306.375 L 67.800781 302.566406 C 65.59375 301.296875 64.203125 298.574219 64.203125 294.703125 L 64.023438 226.925781 C 63.992188 219.125 69.496094 209.660156 76.269531 205.730469 L 217.855469 124.015625 C 221.242188 122.050781 224.355469 121.835938 226.59375 123.136719 L 233.519531 127.160156 C 233.398438 127.097656 233.308594 127.039062 233.1875 127.007812 C 235.574219 128.214844 237.058594 130.996094 237.085938 135.050781 Z M 237.269531 202.800781 "/><path style=" stroke:none;fill-rule:nonzero;fill:#c7d8ef;fill-opacity:1;" d="M 233.511719 127.171875 C 231.257812 125.875 228.167969 126.046875 224.757812 128.03125 L 83.203125 209.75 C 76.382812 213.671875 70.914062 223.160156 70.9375 230.957031 L 71.136719 298.699219 C 71.136719 302.597656 72.507812 305.320312 74.714844 306.597656 L 67.796875 302.574219 C 65.589844 301.296875 64.21875 298.578125 64.21875 294.703125 L 64.019531 226.9375 C 63.996094 219.140625 69.492188 209.652344 76.285156 205.726562 L 217.839844 124.007812 C 221.246094 122.046875 224.363281 121.851562 226.59375 123.152344 Z M 233.511719 127.171875 "/><path style=" stroke:none;fill-rule:nonzero;fill:#dde9fe;fill-opacity:1;" d="M 224.757812 128.027344 C 231.550781 124.105469 237.066406 127.265625 237.085938 135.054688 L 237.28125 202.8125 C 237.300781 210.621094 231.824219 220.105469 225.027344 224.027344 L 83.464844 305.738281 C 76.667969 309.660156 71.15625 306.519531 71.132812 298.714844 L 70.941406 230.953125 C 70.917969 223.164062 76.394531 213.664062 83.191406 209.738281 Z M 224.757812 128.027344 "/><path style=" stroke:none;fill-rule:nonzero;fill:#5179c5;fill-opacity:1;" d="M 116.5625 211.789062 C 121.351562 209.027344 125.230469 211.238281 125.246094 216.726562 C 125.261719 222.222656 121.40625 228.914062 116.621094 231.675781 C 111.832031 234.4375 107.949219 232.214844 107.933594 226.71875 C 107.917969 221.230469 111.777344 214.550781 116.5625 211.789062 Z M 116.5625 211.789062 "/><path style=" stroke:none;fill-rule:nonzero;fill:#5179c5;fill-opacity:1;" d="M 116.800781 235.875 C 130.183594 228.148438 141.070312 234.363281 141.113281 249.726562 L 92.308594 277.90625 C 92.265625 262.535156 103.070312 243.800781 116.460938 236.070312 Z M 116.800781 235.875 "/><path style=" stroke:none;fill-rule:nonzero;fill:#c7d8ef;fill-opacity:1;" d="M 152.984375 209.175781 C 151.90625 209.175781 150.859375 208.617188 150.28125 207.617188 C 149.417969 206.125 149.929688 204.21875 151.421875 203.355469 L 211.230469 168.785156 C 212.722656 167.921875 214.628906 168.4375 215.492188 169.925781 C 216.355469 171.417969 215.84375 173.324219 214.351562 174.1875 L 154.542969 208.757812 C 154.050781 209.039062 153.511719 209.175781 152.984375 209.175781 Z M 152.984375 209.175781 "/><path style=" stroke:none;fill-rule:nonzero;fill:#c7d8ef;fill-opacity:1;" d="M 152.984375 237.3125 C 151.90625 237.3125 150.859375 236.75 150.28125 235.75 C 149.417969 234.257812 149.929688 232.351562 151.421875 231.492188 L 211.230469 196.921875 C 212.722656 196.058594 214.628906 196.570312 215.492188 198.058594 C 216.355469 199.550781 215.84375 201.460938 214.351562 202.320312 L 154.542969 236.890625 C 154.050781 237.175781 153.511719 237.3125 152.984375 237.3125 Z M 152.984375 237.3125 "/><g clip-rule="nonzero" clip-path="url(#877336f91d)"><path style=" stroke:none;fill-rule:nonzero;fill:#c7d8ef;fill-opacity:1;" d="M 669.574219 786.570312 C 669.507812 787.382812 669.371094 788.230469 669.167969 789.074219 C 668.761719 790.664062 668.015625 792.15625 666.695312 793.070312 C 665.953125 793.578125 665.105469 793.882812 664.222656 794.117188 C 660.363281 795.203125 656.335938 795.710938 652.304688 795.609375 C 643.605469 795.335938 635.242188 792.1875 626.742188 790.394531 C 622.949219 789.582031 619.160156 788.667969 615.46875 787.417969 C 613.910156 786.910156 612.355469 786.332031 610.898438 785.519531 C 606.429688 783.015625 603.007812 779.054688 602.195312 774.011719 C 602.027344 773.132812 602.128906 771.574219 602.367188 770.730469 C 602.570312 769.984375 603.042969 769.308594 603.550781 768.730469 C 603.855469 768.394531 604.195312 768.054688 604.53125 767.75 C 605.617188 766.769531 606.9375 766.058594 608.324219 765.617188 C 613.503906 763.890625 618.652344 765.042969 623.832031 765.378906 C 626.980469 765.550781 630.09375 765.449219 633.242188 765.3125 C 635.75 765.246094 638.253906 765.144531 640.691406 764.601562 C 645.164062 763.65625 649.226562 761.320312 653.390625 759.421875 C 655.726562 758.375 658.164062 757.460938 660.667969 757.019531 C 662.363281 756.714844 665.171875 756.242188 666.765625 757.1875 C 668.390625 758.171875 668.289062 761.046875 668.492188 762.671875 C 668.589844 763.621094 668.761719 764.5 668.828125 765.449219 L 669.640625 779.054688 C 669.8125 781.558594 669.8125 784.097656 669.574219 786.570312 Z M 669.574219 786.570312 "/></g><path style=" stroke:none;fill-rule:nonzero;fill:#dde9fe;fill-opacity:1;" d="M 669.574219 786.570312 C 669.507812 787.382812 669.371094 788.230469 669.167969 789.074219 C 669.132812 789.109375 669.066406 789.144531 669.03125 789.175781 C 668.289062 789.683594 667.441406 789.953125 666.5625 790.191406 C 662.699219 791.308594 658.671875 791.816406 654.644531 791.679688 C 645.941406 791.410156 637.578125 788.261719 629.078125 786.46875 C 625.289062 785.65625 621.496094 784.742188 617.804688 783.523438 C 616.214844 782.980469 614.65625 782.40625 613.234375 781.59375 C 608.765625 779.089844 605.34375 775.128906 604.5 770.085938 C 604.398438 769.476562 604.429688 768.5625 604.53125 767.75 C 605.617188 766.769531 606.9375 766.058594 608.324219 765.617188 C 613.503906 763.890625 618.652344 765.042969 623.832031 765.378906 C 626.980469 765.550781 630.09375 765.449219 633.242188 765.3125 C 635.75 765.246094 638.253906 765.144531 640.691406 764.601562 C 645.164062 763.65625 649.226562 761.320312 653.390625 759.421875 C 655.726562 758.375 658.164062 757.460938 660.667969 757.019531 C 662.363281 756.714844 665.171875 756.242188 666.765625 757.1875 C 668.390625 758.171875 668.289062 761.046875 668.492188 762.671875 C 668.589844 763.621094 668.761719 764.5 668.828125 765.449219 L 669.640625 779.054688 C 669.8125 781.558594 669.8125 784.097656 669.574219 786.570312 Z M 669.574219 786.570312 "/><path style=" stroke:none;fill-rule:nonzero;fill:#c7d8ef;fill-opacity:1;" d="M 754.789062 726.003906 C 755.226562 730.015625 755.929688 736.289062 756.308594 740.308594 C 756.390625 741.179688 756.472656 742.054688 756.429688 742.878906 C 756.476562 743.992188 756.398438 745.054688 756.027344 746.089844 C 755.566406 747.425781 754.667969 748.507812 753.699219 749.480469 C 750.683594 752.40625 746.480469 753.914062 742.289062 753.71875 C 739.394531 753.519531 736.59375 752.492188 733.90625 751.390625 C 721.222656 743.300781 709.632812 733.109375 698.941406 721.191406 C 696.117188 717.988281 695.0625 713.625 696.082031 709.476562 C 696.25 708.757812 696.476562 708.03125 696.824219 707.351562 C 698.691406 702.832031 702.933594 699.847656 707.652344 699.40625 C 709.632812 699.222656 711.65625 699.503906 713.664062 700.253906 L 753.492188 715.90625 C 754.964844 718.46875 754.519531 723.089844 754.789062 726.003906 Z M 754.789062 726.003906 "/><path style=" stroke:none;fill-rule:nonzero;fill:#dde9fe;fill-opacity:1;" d="M 754.789062 726.003906 C 755.226562 730.015625 755.929688 736.289062 756.308594 740.308594 C 756.390625 741.179688 756.472656 742.054688 756.429688 742.878906 C 755.972656 743.628906 755.390625 744.328125 754.746094 744.976562 C 751.730469 747.902344 747.527344 749.410156 743.335938 749.214844 C 740.441406 749.019531 737.640625 747.988281 734.953125 746.890625 C 722.269531 738.796875 710.679688 728.605469 699.988281 716.6875 C 697.6875 714.082031 696.550781 710.726562 696.824219 707.351562 C 698.691406 702.832031 702.933594 699.847656 707.652344 699.40625 C 709.632812 699.222656 711.65625 699.503906 713.664062 700.253906 L 753.492188 715.90625 C 754.964844 718.46875 754.519531 723.089844 754.789062 726.003906 Z M 754.789062 726.003906 "/><path style=" stroke:none;fill-rule:nonzero;fill:#353437;fill-opacity:1;" d="M 749.964844 523.816406 L 635.601562 523.816406 C 634.546875 557.082031 633.296875 599.777344 633.152344 619.804688 C 632.894531 656.167969 635.121094 765.246094 635.121094 765.246094 C 634.953125 768.15625 642.5 769.355469 650.472656 769.152344 C 659.207031 768.941406 668.457031 767.035156 668.648438 763.847656 C 668.648438 763.847656 672.710938 663.710938 677.472656 630.6875 C 683.730469 587.230469 690.660156 554.296875 703.371094 526.398438 C 699.039062 581.566406 705.621094 640.113281 720.492188 717.734375 C 722.070312 722.738281 728.339844 726.914062 735.148438 729.03125 C 743.570312 731.660156 752.808594 731.160156 754.96875 725.214844 C 754.96875 725.214844 745.84375 633.476562 745.707031 602.78125 C 745.636719 585.976562 747.71875 553.632812 749.964844 523.816406 Z M 749.964844 523.816406 "/><path style=" stroke:none;fill-rule:nonzero;fill:#29282b;fill-opacity:1;" d="M 704.507812 523.816406 L 684.617188 523.816406 C 684.460938 524.308594 684.300781 524.796875 684.15625 525.285156 C 678.894531 542.832031 678.222656 561.445312 673.609375 579.175781 C 671.847656 585.992188 669.480469 592.921875 670.386719 599.921875 C 670.78125 603.050781 671.824219 606.109375 671.636719 609.261719 C 671.476562 611.71875 670.570312 614.058594 669.785156 616.402344 C 665.539062 628.660156 663.847656 641.640625 662.179688 654.503906 C 660.996094 663.707031 659.816406 672.933594 659.765625 682.203125 C 659.746094 687.742188 660.117188 693.28125 659.464844 698.777344 C 658.792969 704.339844 657.054688 709.714844 656.058594 715.253906 C 654.132812 726.101562 655.105469 737.25 656.082031 748.238281 C 656.335938 750.925781 656.589844 753.660156 657.679688 756.117188 C 659.535156 760.359375 663.570312 763.117188 667.535156 765.574219 C 668.207031 765.066406 668.601562 764.460938 668.648438 763.835938 C 668.648438 763.835938 672.703125 663.707031 677.480469 630.679688 C 683.738281 587.21875 690.671875 554.304688 703.375 526.398438 C 703.261719 527.929688 703.144531 529.460938 703.054688 531.011719 C 703.496094 528.609375 704 526.214844 704.507812 523.816406 Z M 704.507812 523.816406 "/><path style=" stroke:none;fill-rule:nonzero;fill:#29282b;fill-opacity:1;" d="M 749.964844 523.816406 L 735.417969 523.816406 C 735.359375 526.898438 735.097656 529.945312 734.398438 532.914062 C 732.683594 540.191406 728.507812 546.589844 725.332031 553.378906 C 722.179688 560.148438 720 568.003906 722.550781 575.027344 C 723.664062 578.085938 725.613281 580.777344 727.023438 583.71875 C 735.488281 601.242188 724.011719 623.007812 730.527344 641.339844 C 732.753906 647.550781 736.949219 653.070312 738.0625 659.582031 C 738.894531 664.332031 737.992188 669.199219 737.410156 674.023438 C 735.789062 687.628906 736.878906 701.582031 740.609375 714.769531 C 742.003906 719.730469 743.859375 724.734375 747.402344 728.46875 C 747.9375 729.023438 748.496094 729.535156 749.074219 729.996094 C 751.902344 729.253906 754.058594 727.703125 754.960938 725.222656 C 754.960938 725.222656 745.851562 633.484375 745.710938 602.773438 C 745.628906 585.976562 747.710938 553.636719 749.964844 523.816406 Z M 749.964844 523.816406 "/><path style=" stroke:none;fill-rule:nonzero;fill:#5789dc;fill-opacity:1;" d="M 495.664062 308.15625 L 556.390625 274.171875 C 561.359375 271.390625 567.546875 272.097656 571.761719 275.925781 L 634.734375 333.125 C 641 338.816406 640.386719 348.847656 633.46875 353.734375 L 580.628906 391.054688 C 575.679688 394.550781 568.992188 394.242188 564.386719 390.308594 L 493.53125 329.773438 C 486.527344 323.789062 487.625 312.660156 495.664062 308.15625 Z M 495.664062 308.15625 "/><path style=" stroke:none;fill-rule:nonzero;fill:#dde9fe;fill-opacity:1;" d="M 572.988281 381.066406 C 572.789062 381.066406 572.605469 381 572.453125 380.867188 L 501.601562 320.332031 C 501.488281 320.234375 501.277344 320.054688 501.316406 319.628906 C 501.359375 319.203125 501.601562 319.066406 501.730469 318.992188 L 562.457031 285.003906 C 562.582031 284.933594 562.714844 284.902344 562.855469 284.902344 C 563 284.902344 563.214844 284.9375 563.410156 285.113281 L 626.382812 342.316406 C 626.46875 342.394531 626.671875 342.578125 626.648438 342.972656 C 626.625 343.367188 626.398438 343.527344 626.300781 343.59375 L 573.460938 380.914062 C 573.410156 380.953125 573.25 381.066406 572.988281 381.066406 Z M 572.988281 381.066406 "/><path style=" stroke:none;fill-rule:nonzero;fill:#f95070;fill-opacity:1;" d="M 731.242188 275.988281 C 763.589844 282.109375 767.976562 324.007812 763.066406 372.464844 C 760.707031 395.765625 739.5625 455.992188 739.5625 455.992188 L 697.078125 382.082031 L 710.011719 313.789062 Z M 731.242188 275.988281 "/><path style=" stroke:none;fill-rule:nonzero;fill:#fc6c85;fill-opacity:1;" d="M 733.414062 276.402344 C 700.875 269.589844 667.386719 289.375 633.421875 311.652344 C 628.628906 314.796875 625.9375 320.308594 626.390625 326.023438 L 636.378906 452.03125 C 627.554688 490.359375 624.597656 554.265625 625.65625 635.6875 C 636.265625 675.40625 742.703125 637.851562 752.328125 601.875 C 757.632812 551.519531 756.550781 503.066406 746.359375 457.332031 C 736.308594 429.734375 737.429688 403.609375 746.617188 378.546875 C 748.589844 373.167969 749.917969 367.570312 750.714844 361.894531 C 754.519531 334.796875 753.585938 309.570312 745.632812 287.121094 C 743.703125 281.679688 739.0625 277.585938 733.414062 276.402344 Z M 733.414062 276.402344 "/><path style=" stroke:none;fill-rule:nonzero;fill:#ea2856;fill-opacity:1;" d="M 752.332031 601.875 C 742.695312 637.859375 636.273438 675.410156 625.667969 635.699219 C 625.617188 631.996094 625.566406 628.320312 625.542969 624.695312 C 627.058594 624.722656 628.574219 624.796875 630.089844 624.84375 C 665.761719 626.261719 701.804688 616.675781 732.0625 597.726562 C 735.464844 595.589844 739.042969 593.007812 740.085938 589.132812 C 741.078125 585.359375 739.414062 581.460938 738.894531 577.609375 C 737.773438 569.140625 742.320312 560.871094 742.046875 552.351562 C 741.75 543.113281 735.863281 534.796875 735.390625 525.582031 C 734.792969 514.554688 741.972656 503.726562 739.363281 493 C 738.195312 488.179688 735.09375 483.710938 735.589844 478.792969 C 736.035156 474.222656 739.613281 470.050781 738.792969 465.53125 C 738.222656 462.5 735.863281 460.21875 734.050781 457.734375 C 724.386719 444.421875 731.117188 424.976562 724.433594 409.953125 C 721.355469 402.996094 715.34375 396.042969 717.726562 388.84375 C 719.167969 384.519531 723.265625 381.765625 725.925781 378.089844 C 734.992188 365.671875 725.902344 347.515625 731.042969 333.015625 C 734.074219 324.496094 738.570312 319.578125 736.335938 310.191406 C 734.296875 301.574219 729.824219 294.347656 732.65625 285.007812 C 733.675781 281.679688 735.242188 279.273438 737.179688 277.683594 C 741.078125 279.570312 744.160156 282.949219 745.625 287.121094 C 753.597656 309.570312 754.519531 334.800781 750.71875 361.898438 C 749.921875 367.558594 748.582031 373.171875 746.617188 378.5625 C 737.425781 403.617188 736.308594 429.746094 746.371094 457.335938 C 756.554688 503.054688 757.625 551.507812 752.332031 601.875 Z M 752.332031 601.875 "/><path style=" stroke:none;fill-rule:nonzero;fill:#f7b2b2;fill-opacity:1;" d="M 556.292969 401.980469 C 556.476562 402.207031 569.285156 389.042969 569.285156 389.042969 L 572.214844 378.355469 C 572.214844 378.355469 550.164062 346.941406 545.1875 351.472656 C 541.5625 354.773438 545.097656 364.289062 547.285156 369.214844 C 547.695312 370.140625 546.671875 371.035156 545.804688 370.507812 C 540.082031 367.046875 526.445312 357.851562 520.339844 352.679688 C 515.292969 372.46875 527.835938 389.074219 556.292969 401.980469 Z M 556.292969 401.980469 "/><path style=" stroke:none;fill-rule:nonzero;fill:#f7b2b2;fill-opacity:1;" d="M 701.601562 271.378906 C 703.523438 279.164062 688.429688 304.203125 662.34375 287.695312 L 661.734375 273.25 L 672.496094 259.652344 L 699.980469 258.375 Z M 701.601562 271.378906 "/><path style=" stroke:none;fill-rule:nonzero;fill:#f7b2b2;fill-opacity:1;" d="M 636.222656 191.433594 C 630.675781 214.007812 629.988281 236.839844 634.75 259.964844 C 636.542969 268.671875 644.109375 274.996094 653.003906 275.007812 C 663.871094 275.023438 675.605469 272.222656 687.882812 267.652344 L 685.292969 212.007812 L 643.769531 189.8125 Z M 636.222656 191.433594 "/><path style=" stroke:none;fill-rule:nonzero;fill:#eaa7a7;fill-opacity:1;" d="M 687.894531 267.648438 C 675.601562 272.226562 663.859375 275.011719 652.988281 275.019531 C 646.367188 274.996094 640.449219 271.464844 637.164062 266.066406 C 640.015625 267.902344 643.394531 268.910156 646.976562 268.925781 C 657.847656 268.953125 669.5625 266.136719 681.855469 261.554688 L 679.417969 208.855469 L 685.308594 212.023438 Z M 687.894531 267.648438 "/><path style=" stroke:none;fill-rule:nonzero;fill:#ea2856;fill-opacity:1;" d="M 701.597656 271.367188 C 701.597656 271.367188 685.230469 291.261719 662.335938 287.699219 L 651.703125 300.015625 C 670.859375 306.546875 703.476562 297.671875 711.628906 281.707031 C 712.539062 279.921875 711.796875 277.722656 710.097656 276.664062 Z M 701.597656 271.367188 "/><path style=" stroke:none;fill-rule:nonzero;fill:#353437;fill-opacity:1;" d="M 643.539062 195.363281 C 644.40625 195.710938 645.3125 196.039062 646.25 196.351562 C 647.660156 196.816406 648.597656 198.125 648.550781 199.609375 C 648.3125 207.050781 649.140625 213.957031 652.6875 219.511719 C 653.191406 220.300781 653.394531 221.242188 653.167969 222.152344 L 650.539062 232.820312 C 650.183594 234.269531 650.980469 235.753906 652.386719 236.253906 C 653.628906 236.703125 655 236.234375 655.765625 235.15625 C 658.09375 231.882812 660.648438 230.042969 663.5625 230.449219 C 666.332031 230.832031 668.589844 233.753906 668.648438 236.546875 L 668.933594 250.347656 C 668.992188 253.132812 669.234375 255.929688 669.84375 258.644531 C 673.382812 274.417969 683.023438 276.609375 696.792969 270.160156 C 699.558594 268.867188 701.714844 266.582031 703.066406 263.847656 C 705.421875 259.082031 708.882812 253.644531 713.015625 247.796875 C 716.066406 243.484375 718.679688 238.859375 720.683594 233.992188 C 722.390625 229.847656 723.65625 225.527344 724.371094 221.085938 C 726.644531 206.96875 723.640625 195.347656 716.136719 185.859375 C 714.988281 184.402344 714.054688 182.789062 713.523438 181.007812 L 711.953125 175.746094 C 709.957031 169.042969 703.5 164.6875 696.539062 165.34375 L 689.050781 166.046875 C 687.324219 166.210938 685.601562 166.027344 683.921875 165.59375 C 675.925781 163.53125 667.1875 162.773438 657.785156 163.1875 C 655.742188 163.28125 653.691406 163 651.777344 162.285156 L 648.34375 161.003906 C 644.5625 159.59375 640.683594 159.8125 637.339844 161.21875 C 634.421875 162.441406 632.472656 165.253906 632.308594 168.414062 L 631.890625 176.625 C 631.480469 184.691406 636.035156 192.371094 643.539062 195.363281 Z M 643.539062 195.363281 "/><path style=" stroke:none;fill-rule:nonzero;fill:#29282b;fill-opacity:1;" d="M 724.953125 216.257812 C 724.921875 216.503906 724.921875 216.714844 724.890625 216.960938 C 724.769531 218.214844 724.617188 219.46875 724.402344 220.753906 C 724.402344 220.84375 724.402344 220.96875 724.371094 221.058594 C 724.003906 223.292969 723.515625 225.492188 722.902344 227.664062 C 722.292969 229.835938 721.558594 231.914062 720.667969 233.996094 C 719.84375 236.011719 718.894531 237.972656 717.855469 239.898438 C 716.449219 242.648438 714.828125 245.28125 713.023438 247.789062 C 708.894531 253.628906 705.4375 259.074219 703.082031 263.84375 C 702.5 265.035156 701.765625 266.105469 700.847656 267.085938 C 700.753906 267.238281 700.605469 267.390625 700.449219 267.542969 C 699.410156 268.644531 698.1875 269.53125 696.808594 270.171875 C 694.667969 271.152344 692.648438 271.945312 690.722656 272.496094 C 690.9375 272.160156 691.121094 271.824219 691.304688 271.519531 C 693.628906 266.75 697.085938 261.367188 701.246094 255.492188 C 704.273438 251.183594 706.90625 246.535156 708.894531 241.671875 C 710.605469 237.542969 711.890625 233.230469 712.59375 228.796875 C 714.828125 214.730469 711.890625 203.199219 704.488281 193.71875 C 703.265625 192.160156 702.253906 190.417969 701.703125 188.519531 L 700.175781 183.445312 C 698.1875 176.746094 691.730469 172.402344 684.757812 173.046875 L 677.292969 173.75 C 675.550781 173.902344 673.835938 173.75 672.125 173.289062 C 664.140625 171.242188 655.421875 170.476562 646.03125 170.90625 C 643.980469 170.964844 641.902344 170.691406 640.003906 169.988281 L 636.546875 168.703125 C 635.660156 168.367188 634.742188 168.121094 633.824219 167.96875 C 633.273438 167.878906 632.785156 167.570312 632.480469 167.175781 C 633.03125 164.511719 634.804688 162.28125 637.34375 161.210938 L 637.375 161.179688 C 638.6875 160.628906 640.097656 160.261719 641.566406 160.109375 C 642.910156 159.988281 644.316406 160.046875 645.726562 160.292969 C 646.582031 160.445312 647.46875 160.691406 648.355469 161.027344 L 651.75 162.28125 L 651.78125 162.28125 C 652.636719 162.617188 653.496094 162.832031 654.382812 162.984375 C 655.511719 163.199219 656.644531 163.257812 657.777344 163.199219 C 662.367188 162.984375 666.769531 163.074219 671.023438 163.414062 C 672.828125 163.597656 674.601562 163.78125 676.316406 164.054688 C 678.058594 164.328125 679.773438 164.636719 681.453125 165.003906 C 682.28125 165.1875 683.105469 165.398438 683.929688 165.613281 C 684.542969 165.765625 685.1875 165.890625 685.828125 165.980469 C 686.898438 166.105469 687.96875 166.164062 689.039062 166.042969 L 696.535156 165.339844 C 699.839844 165.035156 703.019531 165.828125 705.679688 167.511719 C 706.324219 167.9375 706.964844 168.398438 707.515625 168.886719 C 707.824219 169.160156 708.097656 169.40625 708.371094 169.679688 C 708.894531 170.230469 709.382812 170.8125 709.871094 171.457031 C 710.757812 172.738281 711.460938 174.175781 711.953125 175.765625 L 712.410156 177.328125 L 713.542969 181.027344 C 713.726562 181.609375 713.941406 182.191406 714.183594 182.738281 C 714.429688 183.289062 714.734375 183.808594 715.042969 184.300781 C 715.378906 184.851562 715.746094 185.371094 716.144531 185.859375 C 717.246094 187.234375 718.253906 188.671875 719.140625 190.171875 C 719.753906 191.148438 720.304688 192.160156 720.824219 193.199219 C 721.066406 193.6875 721.3125 194.207031 721.558594 194.757812 C 722.261719 196.320312 722.871094 197.9375 723.363281 199.621094 C 723.699219 200.753906 723.972656 201.882812 724.21875 203.046875 C 725.074219 207.175781 725.320312 211.578125 724.953125 216.257812 Z M 724.953125 216.257812 "/><path style=" stroke:none;fill-rule:nonzero;fill:#f95070;fill-opacity:1;" d="M 637.695312 312.570312 C 646.613281 312.347656 654.25 318.933594 655.320312 327.785156 C 659.058594 358.695312 663.230469 432.1875 648.867188 447.386719 C 630.671875 466.648438 557.558594 403.167969 557.558594 403.167969 C 549.074219 397.601562 564.96875 373.382812 573.453125 378.945312 L 609.902344 396.992188 C 612.058594 398.058594 614.617188 396.628906 614.839844 394.230469 L 620.839844 328.703125 C 621.449219 319.78125 628.753906 312.789062 637.695312 312.570312 Z M 637.695312 312.570312 "/><path style=" stroke:none;fill-rule:nonzero;fill:#ea2856;fill-opacity:1;" d="M 648.867188 447.378906 C 630.683594 466.648438 557.550781 403.171875 557.550781 403.171875 C 554.695312 401.308594 554.621094 397.335938 556.0625 393.0625 C 558.148438 393.832031 560.234375 394.605469 562.320312 395.347656 C 568.582031 397.632812 575.113281 400.09375 579.535156 405.058594 C 582.863281 408.808594 585.398438 414.199219 590.34375 414.96875 C 592.207031 415.265625 594.21875 414.84375 595.957031 415.613281 C 597.523438 416.335938 598.464844 417.898438 599.582031 419.191406 C 602.613281 422.714844 607.410156 424.679688 612.027344 424.257812 C 614.585938 424.03125 617.144531 423.136719 619.65625 423.5625 C 624.351562 424.378906 627.28125 429.445312 631.875 430.738281 C 633.8125 431.285156 635.902344 431.085938 637.9375 430.863281 C 638.609375 430.8125 639.328125 430.714844 639.875 430.292969 C 641.6875 428.851562 639.476562 426.167969 638.734375 423.984375 C 637.390625 420.007812 641.367188 416.410156 642.707031 412.433594 C 645.441406 404.339844 636.894531 395.175781 640.570312 387.476562 C 641.566406 385.390625 643.402344 383.703125 643.976562 381.441406 C 645.066406 377.167969 641.316406 373.320312 639.824219 369.171875 C 636.25 359.164062 646.0625 347.46875 641.167969 338.03125 C 640.097656 335.945312 638.335938 334.15625 637.765625 331.871094 C 635.976562 324.894531 640.945312 317.890625 647.226562 315.15625 C 651.574219 317.839844 654.679688 322.386719 655.328125 327.773438 C 659.054688 358.691406 663.226562 432.179688 648.867188 447.378906 Z M 648.867188 447.378906 "/></g></svg>