<?xml version='1.0' encoding='utf-8'?>
<svg xmlns="http://www.w3.org/2000/svg" viewBox="0 0 3743 4989"> <path transform="matrix(3.5964 .044482 -.044173 3.6216 60.296 0)" d="m365.93 215.79c-2.415 0.234-5.137 0.34-7.509-0.248-3.579-0.886-6.905-3.393-8.598-6.685q-0.285-0.564-0.512-1.154-0.228-0.59-0.397-1.199t-0.277-1.232q-0.108-0.622-0.155-1.253-0.047-0.63-0.031-1.262 0.015-0.632 0.092-1.259 0.078-0.627 0.216-1.244 0.139-0.617 0.337-1.217c1.651-5.043 5.218-7.35 9.665-9.615 1.837-0.066 3.767-0.181 5.584 0.142 3.82 0.679 7.55 2.922 9.592 6.267 1.893 3.099 2.234 6.829 1.16 10.269-1.547 4.959-4.849 7.33-9.167 9.69z" fill="#73B675"/> <path transform="matrix(3.5964 .044482 -.044173 3.6216 60.296 0)" d="m678.75 236.45c-0.368-6.079-1.01-10.708 2.617-15.988 2.472 0.01 5.017 0.08 6.787 2.063 2.798 3.135 1.441 9.621 1.08 13.49 4.263-0.119 8.941-0.769 12.62 1.825 1.881 1.326 2.25 2.465 2.644 4.573-0.369 1.331-0.677 2.128-1.713 3.086-3.455 3.196-8.649 2.791-13.037 2.749 0.031 5.27-1e-3 9.608-2.287 14.438-0.798 0.34-1.89 0.632-2.751 0.68-1.552 0.086-3.013-0.349-4.097-1.492-2.837-2.989-2.104-10.036-2.029-13.94-3.352 0.019-7.741 0.277-10.746-1.363-1.949-1.063-3.029-2.294-3.612-4.412 0.407-1.713 0.505-2.275 1.83-3.536 3.204-3.048 8.635-2.368 12.694-2.173z" fill="#E9A461"/> <path transform="matrix(3.5964 .044482 -.044173 3.6216 60.296 0)" d="m484.02 383.49c-12.136-5.394-19.497-7.175-32.39-2.172-3.552 1.378-8.825 3.745-10.44 7.438-0.498 1.139-0.574 2.304-0.096 3.459 0.586 1.418 0.828 1.526 2.205 2.188 13.243-0.642 18.971-15.709 34.86-3.275-13.201 2.665-68.826 18.423-78.354 24.63 0.721-11.296 2.368-22.336 4.207-33.497-2.625 0.163-5.201 0.056-7.485 1.495-3.088 6.232-3.14 24.813-2.291 31.997-7.433 0.511-14.277 3.363-19.192 9.084-5.31 6.18-7.708 14.763-7.02 22.821 0.663 7.771 4.227 15.149 10.294 20.126 7.463 6.124 15.129 6.654 24.377 5.619 0.744-0.084 1.434-0.197 2.181-0.168-4.369 9.822 4.903 58.11 7.763 69.895q3.329 13.936 8.451 27.318 1.762 4.667 3.8 9.221t4.344 8.977q2.306 4.424 4.873 8.702 2.566 4.279 5.384 8.396c5.145 7.381 11.02 14.54 15.691 22.221-2.043 2.484-4.189 4.933-6.102 7.516l-8.527 3.614c-14.4-14.384-27.44-30.956-37.419-48.726-4.169-7.424-7.416-15.4-11.71-22.734l-0.252-0.423c-4.921-10.589-10.237-21.947-13.04-33.293-17.942-54.18-30.068-93.918-17.273-150.94q1.609-7.486 3.692-14.854 2.084-7.367 4.633-14.587t5.555-14.263q3.005-7.042 6.453-13.879c19.48-38.923 51.465-71.748 93.338-85.683 27.141-9.032 60.903-10.362 86.929 2.737 6.564 3.303 12.831 7.341 19.534 10.332 8.437 3.763 17.222 6.041 25.288 10.708 28.169 16.298 46.552 48.721 56.394 78.754 24.386 74.42 12.306 157.99-17.319 228.95-9.446 21.896-26.502 56.292-46.523 70.014-1.036-2.538-3.258-4.912-4.916-7.099 2.545-7.556 7.17-15.186 10.552-22.462 4.978-10.709 9.223-21.85 13.11-32.999q5.334-15.203 9.049-30.881c2.291-9.686 12.651-64.194 8.97-71.792 0.183-0.472 0.49-1.708 0.792-2.04 1.342-1.481 14.286-3.512 17.641-5.116 6.844-3.272 11.773-9.324 14.245-16.431q0.253-0.742 0.468-1.496 0.216-0.753 0.394-1.517 0.177-0.763 0.316-1.535 0.139-0.771 0.24-1.548 0.1-0.778 0.161-1.559 0.061-0.782 0.083-1.565 0.022-0.784 5e-3 -1.567-0.017-0.784-0.073-1.566-0.057-0.782-0.152-1.56-0.096-0.778-0.23-1.55t-0.307-1.537q-0.173-0.764-0.384-1.519t-0.459-1.499q-0.249-0.743-0.534-1.473t-0.607-1.445q-0.321-0.715-0.678-1.413c-2.907-5.738-7.695-10.507-13.897-12.51-5.865-1.895-10.681-1.022-16.076 1.681-1.599-10.47-4.416-20.302-8.286-30.154-8.074-20.555-19.786-44.244-38.666-56.846-7.697-5.137-16.784-8.547-25.247-12.25-9.988 22.685-40.05 43.83-61.177 55.593-5.848 3.255-14.333 5.484-19.15 9.943z" fill="#FAC679"/> <path transform="matrix(3.5964 .044482 -.044173 3.6216 60.296 0)" d="m776 325.85c0.05-8.395-0.319-15.591 4.166-23.015 1.212 0.308 2.378 0.636 3.27 1.561 4.504 4.676 3.239 15.572 3.196 21.588 5.639-0.061 11.627-0.469 17.031 1.43 2.116 0.743 3.215 1.465 4.225 3.413l-0.659 1.584c-5.688 4.356-13.902 3.557-20.679 3.513 0.103 7.679 0.26 14.279-3.607 21.107-1.324-0.193-2.766-0.621-3.747-1.573-4.403-4.271-3.257-13.939-3.22-19.634-5.067 0.06-10.439 0.448-15.346-1.025-2.52-0.756-3.996-1.439-5.242-3.748l0.643-1.621c5.504-4.343 13.355-3.636 19.969-3.58z" fill="#96C6E4"/> <path transform="matrix(3.5964 .044482 -.044173 3.6216 60.296 0)" d="m484.02 383.49c4.817-4.459 13.302-6.688 19.15-9.943 21.127-11.763 51.189-32.908 61.177-55.593 8.463 3.703 17.55 7.113 25.247 12.25 18.88 12.602 30.592 36.291 38.666 56.846 3.87 9.852 6.687 19.684 8.286 30.154 5.395-2.703 10.211-3.576 16.076-1.681 6.202 2.003 10.99 6.772 13.897 12.51q0.357 0.698 0.678 1.413 0.322 0.715 0.607 1.445t0.534 1.473q0.248 0.744 0.459 1.499t0.384 1.519q0.173 0.765 0.307 1.537t0.23 1.55q0.095 0.778 0.152 1.56 0.056 0.782 0.073 1.566 0.017 0.783-5e-3 1.567-0.022 0.783-0.083 1.565-0.061 0.781-0.161 1.559-0.101 0.777-0.24 1.548-0.139 0.772-0.316 1.535-0.178 0.764-0.394 1.517-0.215 0.754-0.468 1.496c-2.472 7.107-7.401 13.159-14.245 16.431-3.355 1.604-16.299 3.635-17.641 5.116-0.302 0.332-0.609 1.568-0.792 2.04-11.334 36.676-31.144 66.012-65.622 84.392q-2.629 1.392-5.316 2.669c-27.339 11.871-55.116 14.063-83.274 2.974q-2.065-0.814-4.12-1.655c-0.148-0.048-0.297-0.094-0.445-0.144-5.549-1.88-10.861-5.252-15.734-8.478q-1.909-1.244-3.772-2.557-1.863-1.312-3.677-2.691t-3.578-2.822q-1.763-1.444-3.473-2.95-1.709-1.506-3.364-3.073-1.654-1.568-3.251-3.193-1.596-1.626-3.133-3.309-1.536-1.682-3.011-3.419t-2.886-3.526-2.757-3.628q-1.345-1.839-2.623-3.725-1.278-1.887-2.488-3.818-1.209-1.931-2.347-3.905-1.139-1.974-2.205-3.987-1.066-2.014-2.059-4.065t-1.911-4.136c-3.784-8.698-5.002-18.584-9.312-26.991l-0.364-0.697c-0.747-0.029-1.437 0.084-2.181 0.168-9.248 1.035-16.914 0.505-24.377-5.619-6.067-4.977-9.631-12.355-10.294-20.126-0.688-8.058 1.71-16.641 7.02-22.821 4.915-5.721 11.759-8.573 19.192-9.084 0.792 0.258 1.612 0.553 2.431 0.71 1.478 0.282 1.941 0.165 3.138-0.705 9.528-6.207 65.153-21.965 78.354-24.63 1.273 0.493 2.801 0.864 4.12 0.345 1.361-0.535 2.174-1.232 2.703-2.649 0.71-1.902-0.128-3.646-0.962-5.334zm3.915 118.62c-1.383 4.866 2.182 12.905 4.579 17.163q0.841 1.466 1.827 2.84c2.585 3.128 5.453 5.94 8.737 8.339 6.127 4.475 13.664 7.13 21.284 5.834 9.042-1.538 15.201-7.95 20.345-15.052 4.017-5.277 5.796-11.681 7.229-18.036 0.566-4.164 1.463-9.243-0.965-12.991-1.27-1.96-2.931-2.859-5.179-3.329-6.583-1.376-13.672 0.481-20.354 0.442-8.349-0.05-16.797-1.572-25.141-0.758-3.124 0.304-6.348 0.97-9.002 2.731-2.349 1.56-3.6 3.668-4.103 6.413-0.436 2.379-0.662 4.413 0.743 6.404zm83.343-125.41c-5.695 1.771-14.099 3.622-17.103 9.268-0.054 1.916 0.019 2.292 0.93 3.974 7.426 3.425 14.789-9.67 34.097-0.245 3.431 3.009 6.582 6.566 11.408 6.813 1.715-0.678 1.565-0.641 2.307-2.346-0.227-3.797-2.498-6.847-5.253-9.317-7.064-6.335-16.501-8.76-25.826-8.186l-0.56 0.039zm-106.1 35.142c-4.831 4.087-7.04 8.362-7.573 14.67-0.386 4.565 0.505 9.598 3.526 13.171 2.25 2.663 4.826 3.652 8.206 3.952 5.011-4.789 7.411-10.169 7.577-17.119 0.101-4.233-0.67-8.844-3.863-11.893-2.146-2.05-4.941-2.909-7.873-2.781zm103.98-0.022c-4.73 4.199-6.82 8.704-7.131 15.026-0.232 4.711 0.664 9.844 4 13.393 2.457 2.613 4.93 3.112 8.375 3.184 4.723-4.261 6.755-9.436 7.075-15.733 0.231-4.533-0.435-9.737-3.728-13.127-1.862-1.915-4.162-2.846-6.819-2.839-0.593 1e-3 -1.182 0.045-1.772 0.096zm70.336 22.522c-0.626 5.188-3.627 18.738-0.508 22.789 0.886 1.151 1.652 1.06 2.967 1.301 2.541-0.591 4.842-1.993 6.926-3.541 2.59-3.155 5.243-6.508 4.874-10.861-0.22-2.605-1.532-4.749-3.571-6.349-2.998-2.353-6.964-3.176-10.688-3.339zm-244.85 3.548c-4.229 1.743-8.221 3.32-10.086 7.902-0.831 2.042-0.795 4.23 0.113 6.242 1.578 3.493 5.377 5.864 8.837 7.189 3.277 0.466 6.43 0.764 9.74 0.809-1.171-5.608-2.062-17.589-5.147-21.805-1.255-0.327-2.162-0.434-3.457-0.337zm129.3 6.067c-4.258 0.861-9.348 3.663-11.701 7.462-1.827 2.95-1.75 6.61-0.838 9.848 1.357 4.824 4.651 8.699 9.028 11.059 2.694 1.451 6.661 2.732 9.702 1.716 1.273-0.425 2.673-1.379 3.064-2.722 0.156-0.538 0.166-0.951 0.21-1.493-0.159-0.044-0.317-0.091-0.477-0.133-8.903-2.304-11.29 1.296-17.049-8.425-0.996-1.681-1.185-2.765-1.035-4.695 1.231-2.693 3.11-3.658 5.801-4.666 3.229-1.211 7.863-1.643 10.427-3.917-0.033-1.303-0.074-1.538-1.148-2.452-1.5-1.277-4.082-1.492-5.984-1.582zm67.039 0.752c-7.985 1.53-14.621 3.733-19.323 10.827q-0.31 0.471-0.595 0.956-0.286 0.486-0.547 0.985t-0.497 1.011-0.446 1.034q-0.21 0.523-0.393 1.056-0.184 0.533-0.341 1.074-0.156 0.541-0.286 1.089-0.129 0.548-0.231 1.103-0.102 0.554-0.176 1.112-0.074 0.559-0.119 1.12-0.046 0.562-0.064 1.125t-8e-3 1.126q0.011 0.563 0.049 1.125 0.039 0.562 0.105 1.122 0.067 0.559 0.161 1.115 0.095 0.555 0.217 1.105 0.122 0.565 0.272 1.124 0.149 0.558 0.327 1.108t0.383 1.091q0.205 0.54 0.437 1.07t0.49 1.047 0.541 1.021q0.284 0.504 0.593 0.993 0.308 0.489 0.641 0.962t0.689 0.928q0.356 0.456 0.734 0.893t0.778 0.855 0.82 0.815 0.86 0.773q0.439 0.375 0.897 0.729 0.458 0.353 0.933 0.683 0.475 0.329 0.966 0.635c4.623 2.907 9.191 3.625 14.557 3.979 7.756-1.935 13.807-4.684 18.018-11.841q0.308-0.523 0.589-1.061 0.281-0.537 0.535-1.088t0.48-1.114 0.424-1.137q0.198-0.573 0.367-1.156t0.308-1.173q0.14-0.59 0.25-1.187t0.19-1.198 0.131-1.206q0.05-0.605 0.069-1.211 0.02-0.606 0.01-1.213t-0.051-1.212-0.111-1.208q-0.071-0.602-0.172-1.201-0.1-0.598-0.231-1.19-0.13-0.593-0.29-1.178c-1.438-5.438-4.773-10.363-9.688-13.217-3.942-2.289-8.725-3.32-13.252-3zm-150.76 0.628c-6.804 3.373-11.888 7.171-14.477 14.607-2.118 6.082-1.716 13.135 1.181 18.897q0.218 0.442 0.458 0.873t0.501 0.849q0.261 0.419 0.543 0.823 0.283 0.405 0.585 0.795t0.623 0.764 0.661 0.732q0.339 0.357 0.697 0.697 0.357 0.34 0.731 0.662t0.763 0.624q0.39 0.303 0.794 0.585 0.405 0.282 0.823 0.544t0.848 0.502q0.431 0.241 0.873 0.459 0.443 0.219 0.895 0.415 0.453 0.196 0.915 0.369t0.932 0.322c4.673 1.507 9.95 1.475 14.641 0.063 6.322-2.769 11.466-6.503 14.007-13.178q0.197-0.531 0.367-1.072 0.17-0.54 0.313-1.088t0.258-1.103q0.116-0.554 0.203-1.114 0.088-0.56 0.148-1.123 0.059-0.563 0.091-1.129 0.031-0.566 0.035-1.132 3e-3 -0.566-0.022-1.132t-0.078-1.13-0.134-1.125-0.19-1.117q-0.109-0.555-0.245-1.105-0.137-0.55-0.301-1.092-0.163-0.543-0.354-1.076-0.191-0.534-0.407-1.057-0.217-0.523-0.46-1.035-0.248-0.515-0.521-1.017t-0.572-0.989q-0.298-0.488-0.621-0.96-0.323-0.471-0.669-0.926t-0.715-0.892-0.759-0.854q-0.39-0.418-0.801-0.815t-0.842-0.773-0.88-0.73-0.915-0.684q-0.466-0.331-0.949-0.637-0.482-0.307-0.98-0.589-0.497-0.281-1.008-0.538-0.511-0.256-1.034-0.486-0.524-0.23-1.058-0.433-0.534-0.204-1.078-0.38c-4.228-1.415-8.408-1.344-12.816-1.071z" fill="#FCDAB7"/> <path transform="matrix(3.5964 .044482 -.044173 3.6216 60.296 0)" d="m264.44 397.69c-6.447 0.504-12.598-0.083-18.327-3.295q-0.562-0.315-1.108-0.658-0.546-0.342-1.074-0.712-0.527-0.37-1.036-0.766-0.508-0.396-0.996-0.817t-0.954-0.867q-0.466-0.445-0.909-0.913-0.442-0.468-0.861-0.958t-0.812-1q-0.394-0.511-0.761-1.04-0.367-0.53-0.707-1.077-0.34-0.548-0.652-1.112-0.311-0.564-0.594-1.142-0.284-0.579-0.537-1.172-0.253-0.592-0.477-1.197-0.223-0.604-0.415-1.219-0.193-0.615-0.354-1.239c-1.667-6.494-0.813-13.735 2.644-19.513 4.213-7.045 11.011-10.262 18.676-12.263 6.043-0.279 11.558-0.041 17.082 2.692q0.534 0.263 1.055 0.552 0.52 0.29 1.026 0.604t0.996 0.653q0.49 0.338 0.962 0.7 0.473 0.363 0.927 0.748 0.455 0.384 0.89 0.791t0.849 0.834q0.415 0.428 0.808 0.875t0.764 0.913 0.718 0.949q0.348 0.484 0.671 0.984 0.324 0.5 0.622 1.015 0.299 0.515 0.572 1.044t0.52 1.071q0.246 0.542 0.466 1.095 0.22 0.554 0.413 1.117c2.197 6.548 1.449 13.739-1.683 19.854-3.887 7.591-10.449 11.979-18.404 14.469z" fill="#96C6E4"/> <path transform="matrix(3.5964 .044482 -.044173 3.6216 60.296 0)" d="m589.21 389.69c-19.308-9.425-26.671 3.67-34.097 0.245-0.911-1.682-0.984-2.058-0.93-3.974 3.004-5.646 11.408-7.497 17.103-9.268l0.56-0.039c9.325-0.574 18.762 1.851 25.826 8.186 2.755 2.47 5.026 5.52 5.253 9.317-0.742 1.705-0.592 1.668-2.307 2.346-4.826-0.247-7.977-3.804-11.408-6.813z" fill="#E9A461"/> <path transform="matrix(3.5964 .044482 -.044173 3.6216 60.296 0)" d="m478.16 391.13c-15.889-12.434-21.617 2.633-34.86 3.275-1.377-0.662-1.619-0.77-2.205-2.188-0.478-1.155-0.402-2.32 0.096-3.459 1.615-3.693 6.888-6.06 10.44-7.438 12.893-5.003 20.254-3.222 32.39 2.172 0.834 1.688 1.672 3.432 0.962 5.334-0.529 1.417-1.342 2.114-2.703 2.649-1.319 0.519-2.847 0.148-4.12-0.345z" fill="#E9A461"/> <path transform="matrix(3.5964 .044482 -.044173 3.6216 60.296 0)" d="m404.02 382.26c-1.839 11.161-3.486 22.201-4.207 33.497-1.197 0.87-1.66 0.987-3.138 0.705-0.819-0.157-1.639-0.452-2.431-0.71-0.849-7.184-0.797-25.765 2.291-31.997 2.284-1.439 4.86-1.332 7.485-1.495z" fill="#E9A461"/> <path transform="matrix(3.5964 .044482 -.044173 3.6216 60.296 0)" d="m469.34 443.63c-3.38-0.3-5.956-1.289-8.206-3.952-3.021-3.573-3.912-8.606-3.526-13.171 0.533-6.308 2.742-10.583 7.573-14.67 2.932-0.128 5.727 0.731 7.873 2.781 3.193 3.049 3.964 7.66 3.863 11.893-0.166 6.95-2.566 12.33-7.577 17.119z" fill="#365877"/> <path transform="matrix(3.5964 .044482 -.044173 3.6216 60.296 0)" d="m574.4 443.42c-3.445-0.072-5.918-0.571-8.375-3.184-3.336-3.549-4.232-8.682-4-13.393 0.311-6.322 2.401-10.827 7.131-15.026 0.59-0.051 1.179-0.095 1.772-0.096 2.657-7e-3 4.957 0.924 6.819 2.839 3.293 3.39 3.959 8.594 3.728 13.127-0.32 6.297-2.352 11.472-7.075 15.733z" fill="#365877"/> <path transform="matrix(3.5964 .044482 -.044173 3.6216 60.296 0)" d="m753.38 513.36c3.596 1.831 6.869 4.452 10.148 6.796-3.334 10.763-10.484 39.112-20.705 44.398-4.019 2.079-9.059 1.031-13.331 0.385 14.293 11.043 26.639 17.57 45.138 17.43 0.67-18.58 7.364-33.719 14.888-50.337 4.092 2.062 9.387 4.382 10.925 9.105 3.079 9.453-3.645 56.354-8.622 65.421-2.768 5.043-7.433 7.673-12.523 9.891l0.068 37.754c-15.285-1.566-31.735-0.132-47.167-0.223l-0.202-37.096c-1.818-2.072-3.7-4.11-5.373-6.303-6.739-8.834-38.54-64.03-36.915-72.787 0.558-3.01 2.588-5.721 5.107-7.397 2.529-1.682 5.447-2.389 8.439-1.715 9.959 2.242 16.897 19.746 21.801 27.916 7.365-21.46 10.661-63.534 13.506-87.686 1.062-9.016 1.537-18.832 4.015-27.564 0.901-3.178 2.486-6.42 5.159-8.486 2.037-1.573 4.5-1.905 6.992-1.524 2.959 0.452 5.586 1.814 7.264 4.339 1.544 2.322 2.031 5.189 2.032 7.933 2e-3 8.489-2.352 17.556-3.684 25.972-2.31 14.61-4.341 29.212-6.96 43.778z" fill="#FCDAB7"/> <path transform="matrix(3.5964 .044482 -.044173 3.6216 60.296 0)" d="m648.88 454.89c-2.084 1.548-4.385 2.95-6.926 3.541-1.315-0.241-2.081-0.15-2.967-1.301-3.119-4.051-0.118-17.601 0.508-22.789 3.724 0.163 7.69 0.986 10.688 3.339 2.039 1.6 3.351 3.744 3.571 6.349 0.369 4.353-2.284 7.706-4.874 10.861z" fill="#FAC679"/> <path transform="matrix(3.5964 .044482 -.044173 3.6216 60.296 0)" d="m393.51 459.22c-3.46-1.325-7.259-3.696-8.837-7.189-0.908-2.012-0.944-4.2-0.113-6.242 1.865-4.582 5.857-6.159 10.086-7.902 1.295-0.097 2.202 0.01 3.457 0.337 3.085 4.216 3.976 16.197 5.147 21.805-3.31-0.045-6.463-0.343-9.74-0.809z" fill="#FAC679"/> <path transform="matrix(3.5964 .044482 -.044173 3.6216 60.296 0)" d="m533.41 469.82c-0.044 0.542-0.054 0.955-0.21 1.493-0.391 1.343-1.791 2.297-3.064 2.722-3.041 1.016-7.008-0.265-9.702-1.716-4.377-2.36-7.671-6.235-9.028-11.059-0.912-3.238-0.989-6.898 0.838-9.848 2.353-3.799 7.443-6.601 11.701-7.462 1.902 0.09 4.484 0.305 5.984 1.582 1.074 0.914 1.115 1.149 1.148 2.452-2.564 2.274-7.198 2.706-10.427 3.917-2.691 1.008-4.57 1.973-5.801 4.666-0.15 1.93 0.039 3.014 1.035 4.695 5.759 9.721 8.146 6.121 17.049 8.425 0.16 0.042 0.318 0.089 0.477 0.133z" fill="#FAC679"/> <path transform="matrix(3.5964 .044482 -.044173 3.6216 60.296 0)" d="m593.41 491.5c-5.366-0.354-9.934-1.072-14.557-3.979q-0.491-0.306-0.966-0.635-0.475-0.33-0.933-0.683-0.458-0.354-0.897-0.729-0.44-0.376-0.86-0.773t-0.82-0.815-0.778-0.855-0.734-0.893q-0.356-0.455-0.689-0.928t-0.641-0.962q-0.309-0.489-0.593-0.993-0.283-0.504-0.541-1.021t-0.49-1.047-0.437-1.07q-0.205-0.541-0.383-1.091t-0.327-1.108q-0.15-0.559-0.272-1.124-0.122-0.55-0.217-1.105-0.094-0.556-0.161-1.115-0.066-0.56-0.105-1.122-0.038-0.562-0.049-1.125-0.01-0.563 8e-3 -1.126t0.064-1.125q0.045-0.561 0.119-1.12 0.074-0.558 0.176-1.112 0.102-0.555 0.231-1.103 0.13-0.548 0.286-1.089 0.157-0.541 0.341-1.074 0.183-0.533 0.393-1.056 0.21-0.522 0.446-1.034t0.497-1.011 0.547-0.985q0.285-0.485 0.595-0.956c4.702-7.094 11.338-9.297 19.323-10.827 4.527-0.32 9.31 0.711 13.252 3 4.915 2.854 8.25 7.779 9.688 13.217q0.16 0.585 0.29 1.178 0.131 0.592 0.231 1.19 0.101 0.599 0.172 1.201 0.07 0.603 0.111 1.208t0.051 1.212-0.01 1.213q-0.019 0.606-0.07 1.211-0.05 0.605-0.13 1.206t-0.19 1.198-0.25 1.187-0.308 1.173q-0.169 0.583-0.367 1.156-0.198 0.574-0.424 1.137t-0.48 1.114-0.535 1.088q-0.281 0.538-0.589 1.061c-4.211 7.157-10.262 9.906-18.018 11.841z" fill="#FAC679"/> <path transform="matrix(3.5964 .044482 -.044173 3.6216 60.296 0)" d="m453.21 488.91c-4.691 1.412-9.968 1.444-14.641-0.063q-0.47-0.149-0.932-0.322t-0.915-0.369q-0.452-0.196-0.895-0.415-0.442-0.218-0.872-0.459-0.431-0.24-0.849-0.502t-0.823-0.544q-0.404-0.282-0.794-0.585-0.389-0.302-0.763-0.624t-0.731-0.662q-0.358-0.34-0.697-0.697-0.34-0.358-0.661-0.732t-0.623-0.764-0.584-0.795q-0.283-0.404-0.544-0.823-0.261-0.418-0.501-0.849t-0.458-0.873c-2.897-5.762-3.299-12.815-1.181-18.897 2.589-7.436 7.673-11.234 14.477-14.607 4.408-0.273 8.588-0.344 12.816 1.071q0.544 0.176 1.078 0.38 0.534 0.203 1.058 0.433 0.523 0.23 1.034 0.486 0.511 0.257 1.008 0.538 0.498 0.282 0.98 0.589 0.483 0.306 0.949 0.637 0.466 0.33 0.915 0.684t0.88 0.73 0.842 0.773 0.801 0.815q0.39 0.417 0.759 0.854t0.715 0.892 0.669 0.926q0.323 0.472 0.621 0.96 0.299 0.487 0.572 0.989t0.521 1.017q0.243 0.512 0.46 1.035 0.216 0.523 0.407 1.057 0.191 0.533 0.354 1.076 0.164 0.542 0.301 1.092 0.136 0.55 0.245 1.105 0.109 0.556 0.19 1.117t0.134 1.125 0.078 1.13 0.022 1.132q-4e-3 0.566-0.035 1.132-0.032 0.566-0.091 1.129-0.06 0.563-0.148 1.123-0.087 0.56-0.203 1.114-0.115 0.555-0.258 1.103t-0.313 1.088q-0.17 0.541-0.367 1.072c-2.541 6.675-7.685 10.409-14.007 13.178z" fill="#FAC679"/> <path transform="matrix(3.5964 .044482 -.044173 3.6216 60.296 0)" d="m455.19 627.97c-4.671-7.681-10.546-14.84-15.691-22.221q-2.818-4.117-5.384-8.396-2.567-4.278-4.873-8.702-2.306-4.423-4.344-8.977t-3.8-9.221q-5.122-13.382-8.451-27.318c-2.86-11.785-12.132-60.073-7.763-69.895l0.364 0.697c4.31 8.407 5.528 18.293 9.312 26.991q0.918 2.085 1.911 4.136t2.059 4.065q1.066 2.013 2.205 3.987 1.138 1.974 2.347 3.905 1.21 1.931 2.488 3.817 1.278 1.887 2.623 3.726 1.346 1.839 2.757 3.628t2.886 3.526 3.011 3.419q1.537 1.683 3.134 3.309 1.596 1.625 3.25 3.193 1.655 1.567 3.364 3.073 1.71 1.506 3.473 2.95 1.764 1.443 3.578 2.822t3.677 2.691q1.863 1.313 3.772 2.557c4.873 3.226 10.185 6.598 15.734 8.478 0.148 0.05 0.297 0.096 0.445 0.144l0.045 20.336c0.269 8.315 2.158 20.675-0.507 28.518-8.478 2.387-15.75 8.331-21.622 14.762z" fill="#E9A461"/> <path transform="matrix(3.5964 .044482 -.044173 3.6216 60.296 0)" d="m635.6 475.97c3.681 7.598-6.679 62.106-8.97 71.792q-3.715 15.678-9.049 30.881c-3.887 11.149-8.132 22.29-13.11 32.999-3.382 7.276-8.007 14.906-10.552 22.462-7.987-9.274-16.267-18.955-29.043-20.751-1.736-9.831-0.662-19.911-0.082-29.817l-0.132-20.505q2.687-1.277 5.316-2.669c34.478-18.38 54.288-47.716 65.622-84.392z" fill="#E9A461"/> <path transform="matrix(3.5964 .044482 -.044173 3.6216 60.296 0)" d="m487.94 502.11c-1.405-1.991-1.179-4.025-0.743-6.404 0.503-2.745 1.754-4.853 4.103-6.413 2.654-1.761 5.878-2.427 9.002-2.731 8.344-0.814 16.792 0.708 25.141 0.758 6.682 0.039 13.771-1.818 20.354-0.442 2.248 0.47 3.909 1.369 5.179 3.329 2.428 3.748 1.531 8.827 0.965 12.991-21.817 4.708-42.434 6.007-64.001-1.088z" fill="#FEFEFE"/> <path transform="matrix(3.5964 .044482 -.044173 3.6216 60.296 0)" d="m494.34 522.11q-0.986-1.374-1.827-2.84c-2.397-4.258-5.962-12.297-4.579-17.163 21.567 7.095 42.184 5.796 64.001 1.088-1.433 6.355-3.212 12.759-7.229 18.036-11.106-7.144-26.815-5.496-39.262-2.766q-5.728 1.287-11.104 3.645z" fill="#846262"/> <path transform="matrix(3.5964 .044482 -.044173 3.6216 60.296 0)" d="m284.07 536.71c-1.51-0.445-2.934-0.836-3.749-2.312-2.895-5.243-1.244-12.945 0.271-18.389 0.555 0.279 1.095 0.581 1.616 0.922 2 1.307 2.588 3.2 3.089 5.445 0.88 3.948 0.924 10.868-1.227 14.334z" fill="#96C6E4"/> <path transform="matrix(3.5964 .044482 -.044173 3.6216 60.296 0)" d="m494.34 522.11q5.376-2.358 11.104-3.645c12.447-2.73 28.156-4.378 39.262 2.766-5.144 7.102-11.303 13.514-20.345 15.052-7.62 1.296-15.157-1.359-21.284-5.834-3.284-2.399-6.152-5.211-8.737-8.339z" fill="#E9A461"/> <path transform="matrix(3.5964 .044482 -.044173 3.6216 60.296 0)" d="m763.53 520.15c1.932 0.116 3.628 0.104 5.536-0.24-3e-3 0.204-2e-3 0.407-7e-3 0.61-0.394 14.768-20.978 43.222-14.621 51.995 1.921 1.187 3.855 1.882 6.141 1.399 3.221-0.68 5.5-3.475 7.091-6.182 6.658-11.326 7.095-27.18 16.443-36.798 1.834 0.526 3.5 0.957 5.407 1.092-7.524 16.618-14.218 31.757-14.888 50.337-18.499 0.14-30.845-6.387-45.138-17.43 4.272 0.646 9.312 1.694 13.331-0.385 10.221-5.286 17.371-33.635 20.705-44.398z" fill="#FAC679"/> <path transform="matrix(3.5964 .044482 -.044173 3.6216 60.296 0)" d="m769.07 519.91c4.256-0.073 7.858 0.628 11.013 3.786 1.9 1.902 3.408 4.625 4.034 7.238-9.348 9.618-9.785 25.472-16.443 36.798-1.591 2.707-3.87 5.502-7.091 6.182-2.286 0.483-4.22-0.212-6.141-1.399-6.357-8.773 14.227-37.227 14.621-51.995 5e-3 -0.203 4e-3 -0.406 7e-3 -0.61z" fill="#FCDAB7"/> <path transform="matrix(3.5964 .044482 -.044173 3.6216 60.296 0)" d="m201.97 1121.5c-0.658-0.63-1.004-1.28-1.389-2.11-3.53-7.59-4.787-18.25-5.267-26.65-1.364-23.84 5.515-35.91 18.647-54.51 4.161-5.9 8.041-11.93 10.326-18.83 11.761-35.518-19.532-55.226-33.398-82.976-24.591-49.212-16.156-119.45 17.368-162.66 10.377-13.375 27.182-23.616 34.38-38.905 5.993-12.731 3.208-26.9 4.578-40.441 1.051-10.396 3.792-20.709 7.127-30.597q0.689-1.985 1.416-3.955 0.727-1.971 1.493-3.927t1.57-3.896q0.804-1.941 1.647-3.865 0.842-1.925 1.721-3.832 0.88-1.908 1.797-3.798t1.871-3.761q0.954-1.872 1.945-3.724 0.99-1.853 2.017-3.685 1.026-1.833 2.089-3.645 1.062-1.812 2.16-3.603t2.231-3.56 2.3-3.516q1.167-1.746 2.369-3.469 1.201-1.724 2.436-3.423t2.503-3.374q1.269-1.675 2.569-3.324 1.301-1.65 2.634-3.274 1.333-1.623 2.697-3.221 1.365-1.597 2.761-3.167 1.395-1.57 2.821-3.113 1.427-1.542 2.883-3.056 1.456-1.515 2.942-3 1.485-1.485 3-2.941 1.514-1.456 3.057-2.882t3.114-2.821q1.57-1.395 3.168-2.759 1.597-1.365 3.222-2.697 1.624-1.333 3.274-2.633 1.649-1.301 3.325-2.569 1.675-1.267 3.375-2.502 1.699-1.235 3.423-2.436c13.922-9.521 28.888-16.976 43.967-24.441 2.803 11.346 8.119 22.704 13.04 33.293-0.12 0.108-0.237 0.22-0.36 0.325-5.653 4.849-15.122 6.533-21.901 9.527-18.528 8.184-36.408 22.26-49.546 37.596-24.088 28.117-29.564 54.206-36.079 89.368-2.533 13.669-5.304 27.448-10.924 40.248-15.238 34.712-42.263 40.814-46.641 87.499-0.249 2.658-0.455 5.441-0.022 8.089l-0.377 0.516c-14.786 20.01-39.514 39.654-35.316 67.455 3.754 24.857 33.576 55.774 50.594 73.349 6.039 6.238 12.659 12.176 18.401 18.663 1.105 9.762 13.962 36.982 22.367 42.182 0.618 0.39 0.81 0.39 1.433 0.53-2.376 29.07-16.25 38.9-24.983 63.19-2.669 7.42-2.133 16.22-5.581 23.23-3.335 1.88-38.283 1.52-42.899 0.35-0.564-0.14-1.135-0.39-1.666-0.63-2.603-1.25-4.241-4.79-5.709-7.23z" fill="#96C6E4"/> <path transform="matrix(3.5964 .044482 -.044173 3.6216 60.296 0)" d="m271.5 542.26c-2.263 0.121-4.592 0.304-6.856 0.196-2.752-0.131-6.31-1.457-8.095-3.564l0.375-1.158 1.577-0.648-0.474 0.02c2.045-0.991 4.139-0.875 6.365-0.937 4.1-0.091 9.126-0.855 12.775 1.317 0.914 1.642 0.934 1.714 0.692 3.576-1.754 1.369-4.217 1.106-6.359 1.198z" fill="#96C6E4"/> <path transform="matrix(3.5964 .044482 -.044173 3.6216 60.296 0)" d="m306.91 541.81c-6.29 0.55-13.519 2.133-19.473-0.424-1.563-1.868-1.243-3.009-1.315-5.317 5.905-0.184 14.659-1.955 19.927 1.113 1.236 1.941 0.995 2.399 0.861 4.628z" fill="#96C6E4"/> <path transform="matrix(3.5964 .044482 -.044173 3.6216 60.296 0)" d="m284.23 563.28-2.227-0.341c-0.816-0.516-1.496-0.943-1.992-1.801-2.793-4.828-1.526-13.425-0.49-18.634 2.165 0.08 3.194-0.147 5.012 1.092 2.911 5.903 0.987 13.525-0.303 19.684z" fill="#96C6E4"/> <path transform="matrix(3.5964 .044482 -.044173 3.6216 60.296 0)" d="m477.27 564.35q2.055 0.841 4.12 1.655c28.158 11.089 55.935 8.897 83.274-2.974l0.132 20.505c-33.754 12.529-53.698 10.633-87.481 1.15l-0.045-20.336z" fill="#FAC679"/> <defs> <linearGradient id="b" x1="281.05" x2="395.14" y1="857.44" y2="570.98" gradientUnits="userSpaceOnUse"> <stop stop-color="#76BA8F" offset="0"/> <stop stop-color="#B9E3BE" offset="1"/> </linearGradient> </defs> <path transform="matrix(3.5964 .044482 -.044173 3.6216 60.296 0)" d="m391.18 567.21 0.252 0.423c4.294 7.334 7.541 15.31 11.71 22.734 9.979 17.77 23.019 34.342 37.419 48.726-12.98 4.346-71.121 29.36-79.786 36.055-8.189 6.328-14.475 16.233-20.84 24.346q-11.14 14.072-22.487 27.977c-30.597 37.436-62.681 73.717-91.741 112.39-0.433-2.648-0.227-5.431 0.022-8.089 4.378-46.685 31.403-52.787 46.641-87.499 5.62-12.8 8.391-26.579 10.924-40.248 6.515-35.162 11.991-61.251 36.079-89.368 13.138-15.336 31.018-29.412 49.546-37.596 6.779-2.994 16.248-4.678 21.901-9.527 0.123-0.105 0.24-0.217 0.36-0.325z" fill="url(#b)"/> <path transform="matrix(3.5964 .044482 -.044173 3.6216 60.296 0)" d="m645.36 571.19c24.911 14.363 44.461 34.93 59.889 59.076 4.761 7.451 9.611 15.58 12.047 24.122-0.962 19.54 1.802 39.166 0.558 58.617-0.742-4.309-0.395-8.8-0.285-13.157-4.648 0.066-10.301-0.275-14.693 1.186-5.576-8.836-14.591-20.238-23.773-25.137-10.838-5.784-70.485-35.07-77.824-34.586-0.604 0.04-1.158 0.354-1.737 0.53l-0.705-0.637c20.021-13.722 37.077-48.118 46.523-70.014z" fill="#96C6E4"/> <path transform="matrix(3.5964 .044482 -.044173 3.6216 60.296 0)" d="m477.32 584.69c33.783 9.483 53.727 11.379 87.481-1.15-0.58 9.906-1.654 19.986 0.082 29.817 3.504 10.179 10.611 14.159 16.293 22.452 0.357 4.104 1.866 10.89 0.385 14.738-0.122 0.087-0.246 0.171-0.366 0.261-4.824 3.603-8.254 9.543-12.695 13.722q-0.738 0.693-1.494 1.365t-1.53 1.323q-0.775 0.651-1.567 1.281-0.791 0.63-1.6 1.237-0.809 0.608-1.634 1.194-0.825 0.585-1.666 1.148-0.841 0.562-1.697 1.102-0.856 0.539-1.727 1.055-0.87 0.516-1.754 1.008-0.884 0.491-1.782 0.959-0.897 0.467-1.807 0.91t-1.831 0.86q-0.922 0.418-1.855 0.81t-1.876 0.759q-0.943 0.366-1.896 0.707-0.952 0.34-1.914 0.655-0.962 0.314-1.932 0.602t-1.947 0.549q-0.978 0.261-1.962 0.496-0.984 0.234-1.975 0.442-0.99 0.207-1.986 0.387-0.995 0.18-1.996 0.333-1 0.153-2.004 0.279-1.004 0.125-2.011 0.223t-2.017 0.168q-1.009 0.071-2.02 0.113-1.011 0.043-2.023 0.058-1.011 0.015-2.023 2e-3t-2.023-0.053-2.021-0.108q-1.009-0.068-2.016-0.164-1.008-0.096-2.012-0.219c-13.401-1.691-27.831-6.503-38.228-15.389-2.281-1.951-5.558-6.335-8.248-7.223l-0.794 0.901c-3.208-7.323 2.155-21.637-0.389-27.017 5.863-6.941 12.325-13.445 15.57-22.075 2.665-7.843 0.776-20.203 0.507-28.518z" fill="#FCDAB7"/> <path transform="matrix(3.5964 .044482 -.044173 3.6216 60.296 0)" d="m564.88 613.35c12.776 1.796 21.056 11.477 29.043 20.751 1.658 2.187 3.88 4.561 4.916 7.099l0.705 0.637c2.041 4.514 4.115 10.455 7.442 14.13 8.481 24.723 13.766 48.936 15.808 75.045-3.495 0.23-6.959 0.445-10.42 1.008l-2.239-15.146c-1.621-27.123-10.826-60.246-28.962-81.072-5.682-8.293-12.789-12.273-16.293-22.452z" fill="#365877"/> <path transform="matrix(3.5964 .044482 -.044173 3.6216 60.296 0)" d="m455.19 627.97c5.872-6.431 13.144-12.375 21.622-14.762-3.245 8.63-9.707 15.134-15.57 22.075-1.035 1.482-2.238 2.973-3.128 4.541-15.368 23.993-20.805 54.906-20.817 83.024 4.765 1.126 9.383 2.28 13.984 3.99 10.347 6.252 18.354 13.133 21.441 25.277 1.353 5.318 2.397 38.461-0.15 42.059-0.795 1.121-3.218 1.323-4.548 1.482-2.533-0.418-4.913-0.395-7.463-0.325-1.65-1.703-1.772-2.83-2.366-5.012l-0.196-9.579 4.269-4.144c1.28-9.401 2.199-18.964-2.565-27.61-4.194-7.613-11.276-11.659-19.4-14.013l-4.574-0.692c-9.639 1.065-19.301 3.578-25.711 11.426-6.4 7.836-7.341 19.447-6.191 29.119 0.84 7.069 4.398 17.314 2.067 23.953-0.487 0.517-1.025 1.201-1.597 1.637l-3.533 0.159-0.844-0.013-6.514-0.184c-0.088-0.211-0.175-0.424-0.249-0.64-1.038-3.072 0.061-37.284 0.806-42.416 0.627-4.324 1.745-8.604 3.638-12.555 6.141-12.814 17.163-16.823 29.678-21.349 0.084-32.048 5.872-59.988 21.809-87.932 1.913-2.583 4.059-5.032 6.102-7.516z" fill="#365877"/> <path transform="matrix(3.5964 .044482 -.044173 3.6216 60.296 0)" d="m193.55 648.66q-0.932 0.158-1.875 0.214-0.944 0.055-1.888 7e-3t-1.877-0.199-1.844-0.403c-4.071-1.158-7.428-3.658-9.395-7.442-2.135-4.11-2.554-9.18-0.942-13.539 2.139-5.782 5.99-8.123 11.212-10.666 3.035-0.255 5.938-0.105 8.825 0.964 3.998 1.482 7.177 4.354 8.874 8.283 1.719 3.98 1.631 8.486 0.058 12.49-2.101 5.349-6.171 8.046-11.148 10.291zm-5.363-28.751c-4.41 1.717-7.984 3.546-9.879 8.23q-0.244 0.596-0.425 1.215-0.18 0.618-0.296 1.252t-0.166 1.276q-0.049 0.643-0.032 1.287t0.1 1.283q0.084 0.638 0.233 1.265t0.362 1.235 0.488 1.191c1.497 3.216 4.357 5.741 7.69 6.939 1.999 0.718 4.183 0.701 6.283 0.737 4.604-2.42 8.149-4.594 9.851-9.867 1.058-3.277 0.873-6.895-0.896-9.901-1.81-3.075-4.949-4.979-8.381-5.723-1.639-0.356-3.261-0.424-4.932-0.419z" fill="#96C6E4"/> <path transform="matrix(3.5964 .044482 -.044173 3.6216 60.296 0)" d="m440.56 639.1 8.527-3.614c-15.937 27.944-21.725 55.884-21.809 87.932-12.515 4.526-23.537 8.535-29.678 21.349-1.893 3.951-3.011 8.231-3.638 12.555-0.745 5.132-1.844 39.344-0.806 42.416 0.074 0.216 0.161 0.429 0.249 0.64 2.721 2.884 5.288 19.625 6.726 24.499 3.067 10.398 6.747 20.541 11.979 30.06 2.054 3.735 13.012 18.232 13.131 20.133-3.176 2.876-12.155 3.485-16.398 3.393-1.02-3.048-2.593-6.362-5.571-7.986-1.372-0.748-2.738-0.689-4.153-0.145-1.786 0.687-3.058 2.412-3.798 4.117-0.889 2.049-0.863 3.792-0.184 5.878 1.646 1.727 2.429 2.238 4.971 2.274 2.155 0.03 3.723-0.316 5.548-1.485 0.51-0.327 1.02-0.635 1.524-0.974 4.608 1.958 11.966 1.848 16.567-0.022 3.828-1.556 7.938-6.417 11.547-6.958q-0.812 1.629-1.7 3.218l0.405 0.829c1.965 0.093 3.537-0.485 5.425-0.529 3.864-0.09 10.712 2.845 14.232 4.465 1.18 1.487 2.469 2.732 4.395 3.152 2.154 0.47 5.254 0.148 7.056-1.211 1.307-0.986 2.123-2.469 2.194-4.107 0.088-2.028-0.825-4.084-2.273-5.485-1.304-1.263-3.042-1.935-4.859-1.8-3.397 0.251-5.544 3.086-7.49 5.534-4.397-0.089-7.938-1.784-11.819-3.656 7.776-8.388 12.98-19.08 16.695-29.804 9.17 14.03 16.458 29.438 24.622 44.072 11.261 20.183 24.054 40.628 37.673 59.285 1.257-14.099-0.638-29.81 2.805-43.492 1.18 3.72 2.216 7.543 4.211 10.924-2.937 13.019-1.256 28.119-0.783 41.377 16.993-27.562 31.208-57.138 45.287-86.256 2.184-4.516 5.845-8.93 7.004-13.827 2.271-9.597 0.105-23.449 0.391-33.619 2.21 10.708-1.321 22.494 0.812 33.052 0.692 3.427 2.333 5.392 5.198 7.298 11.513 7.66 29.557 9.837 42.908 7.099 9.994-2.049 18.964-7.36 24.57-16.018 10.026-15.483 7.247-38.513 3.439-55.739-1.508-1.622-3.174-3.117-4.776-4.647-10.578-1.31-21.02-1.564-31.671-1.547l-0.903-2.586c7.011 0.118 12.829-1.751 19.117-4.706 2.887-1.511 5.66-3.568 7.711-6.124 4.453-5.547 3.894-11.669 3.1-18.24-0.663-4.841-1.376-9.458-3.375-13.954-3.239-7.282-8.16-11.201-15.449-14.07 0.205-19.285-6.01-53.165-15.915-69.893-1.618-2.733-3.348-5.367-6.544-6.183-3.327-3.675-5.401-9.616-7.442-14.13 0.579-0.176 1.133-0.49 1.737-0.53 7.339-0.484 66.986 28.802 77.824 34.586 9.182 4.899 18.197 16.301 23.773 25.137 4.642 8.113 9.199 16.293 14.227 24.176 1.409 1.858 1.649 2.218 4.075 2.552 9.524 1.311 20.029 0.733 29.677 0.751l51.209-3e-3c0.817 13.256-0.708 46.225 2.091 56.314-0.778 13.536 0.144 26.734 0.711 40.24 0.473 11.275 0.587 22.578 0.835 33.861 0.244 11.126 1.275 22.956-1.385 33.854-2.2 9.01-6.955 17.416-13.925 23.59-6.11 5.412-13.738 8.318-21.53 10.378-13.358 2.005-26.42 0.167-37.532-8.06-17.384-12.874-43.53-66.609-57.301-87.319-0.168 35.921 2.304 71.62 4.445 107.46q3.734 66.967 8.28 133.88c0.636 9.89 1.125 48.26 3.842 55.68-1.828 2.03-3.294 2.39-6.04 2.56-6.52 0.41-13.398-0.42-19.984-0.44l-53.596-0.04-173.77 0.03h-42.477c-7.406-0.05-15.036-0.67-22.408-0.1-1.984 0.15-3.007 0.19-4.484-1.28-0.162-0.17-0.306-0.35-0.459-0.52 2.771-15.46 3.59-31.83 5.3-47.49 1.83 1.1 42.735 16.69 45.03 17.05l2.209-0.77c0.49 0.13 0.993 0.21 1.494 0.28 9.416 1.35 6.268-9.28 11.186-12.91 0.614 0.32 1.441 0.85 2.115 0.98 1.669 0.32 2.239-0.56 3.439-1.51 0.555 0.28 0.942 0.51 1.572 0.65 1.371 0.3 2.903-0.66 3.834-1.57 2.986-2.92 2.963-9.73 3.219-13.58 2.075 0.7 4.259 0.94 6.371 0.21 2.464-0.86 4.257-2.81 5.225-5.2 1.491-3.68 1.344-8.05-0.287-11.66-2.094-4.63-3.828-3.73-7.775-5.43-1.652-0.71-1.699-1.74-2.357-3.3 2.266-0.55 4.033-3.83 5.343-5.62 1.938 0.93 3.542 1.03 5.658 1.14 4.747 0.24 9.204 0.49 12.888-3.09 3.015-2.93 4.079-7.3 4.236-11.37 0.189-4.91 0.858-13-2.88-16.79-5.089-5.15-52.421-2.81-61.681-2.78 4.765-7.935 10.316-14.676 12.997-23.688-0.878-2.156-1.78-4.246-3.429-5.94-1.822-1.87-4.034-2.869-6.649-2.878-10.82-0.034-26.314 19.325-33.9 26.726l-0.594-194c-10.962 9.356-20.683 19.831-30.866 29.988-22.278 22.22-43.8 44.775-65.286 67.759 24.979 28.623 49.191 57.879 74.928 85.839-1.579 1.914-3.051 3.93-4.562 5.899q-12.661 14.428-25.499 28.708c-3.955 4.39-8.119 9.87-12.74 13.51-0.357 0.59-0.691 1.13-1.147 1.65-2.293 2.62-4.632 4.7-8.236 5-5.97-1.51-39.984-37.36-47.527-44.552-5.742-6.487-12.362-12.425-18.401-18.663-17.018-17.575-46.84-48.492-50.594-73.349-4.198-27.801 20.53-47.445 35.316-67.455l0.377-0.516c29.06-38.674 61.144-74.955 91.741-112.39q11.347-13.905 22.487-27.977c6.365-8.113 12.651-18.018 20.84-24.346 8.665-6.695 66.806-31.709 79.786-36.055zm102.91 323.06c-2.917 2.638-4.973 4.758-5.232 8.949-0.105 1.701 0.347 3.477 1.508 4.762 1.904 2.11 4.432 2.637 7.154 2.599 0.168-2e-3 0.336-9e-3 0.503-0.013 2.691-2.015 5.114-3.807 5.716-7.364 0.295-1.745-0.04-3.478-1.09-4.919-1.813-2.487-5.179-3.636-8.124-3.972-0.145-0.016-0.29-0.028-0.435-0.042zm38.556 43.64c-3.538 2.44-5.354 4.84-6.208 9.18-1.143 5.82-1.25 16.25 2.479 21.26 2.088 2.8 6.96 3 10.191 3.3 13.424 1.26 27.371-0.03 40.848-0.19 9.722-0.11 20.006 0.96 29.637-0.35 1.475-0.2 2.334-0.62 3.512-1.51 1.712 0.4 2.587 0.65 4.221-0.33 2.261-1.36 2.987-4.81 3.336-7.22 0.836-5.77 1.751-16.41-2.212-21.31-2.111-2.61-8.539-2.79-11.681-2.97-10.266-0.59-20.726-0.02-31.016 0.04-14.368 0.09-28.741-0.17-43.107 0.1zm-38.594 43.4c-3.2 3.75-4.751 6.21-4.286 11.4 0.122 1.36 0.462 3.39 1.538 4.38 1.079 0.99 2.088 1.17 3.502 0.91 1.553-0.3 2.84-1.05 3.968-2.11 2.1 0.24 2.138 0.2 3.903-0.98 1.234-2.11 1.527-4.07 0.961-6.48-0.541-2.3-2.031-3.83-4.047-4.98-1.765-1-3.753-1.29-5.539-2.14z" fill="#C4ECFC"/> <path transform="matrix(3.5964 .044482 -.044173 3.6216 60.296 0)" d="m461.24 635.28c2.544 5.38-2.819 19.694 0.389 27.017 7.928 37.159 17.671 73.749 27.039 110.55 5.589 21.956 10.558 44.075 16.325 65.984 5.688 21.607 12.597 43.053 17.661 64.795-3.443 13.682-1.548 29.393-2.805 43.492-13.619-18.657-26.412-39.102-37.673-59.285-8.164-14.634-15.452-30.042-24.622-44.072 6.972-14.715 9.362-32.059 10.468-48.112 1.33-0.159 3.753-0.361 4.548-1.482 2.547-3.598 1.503-36.741 0.15-42.059-3.087-12.144-11.094-19.025-21.441-25.277 0.16-14.583 4.742-28.208 6.459-42.549 1.708-14.275 0.695-30.058 0.374-44.465 0.89-1.568 2.093-3.059 3.128-4.541z" fill="#FEFEFE"/> <path transform="matrix(3.5964 .044482 -.044173 3.6216 60.296 0)" d="m581.17 635.8c18.136 20.826 27.341 53.949 28.962 81.072-3.804 5.923-6.342 12.445-7.227 19.439-5.93 6.983-9.504 13.319-8.753 22.755 0.204 2.562 0.565 5.127 0.91 7.673l-0.815 2.392c-0.537 5.576-0.754 18.682-5.682 22.318-0.888 0.655-2.305 0.828-3.371 1.017-2.218 0.722-3.87 1.245-4.917 3.467-3.202 6.792-1.639 18.755-1.516 26.29-0.286 10.17 1.88 24.022-0.391 33.619-1.159 4.897-4.82 9.311-7.004 13.827-14.079 29.118-28.294 58.694-45.287 86.256-0.473-13.258-2.154-28.358 0.783-41.377 3.659-13.943 5.55-28.544 8.481-42.674l20.325-96.566 16.419-77.771c3.325-15.504 7.561-31.272 9.468-46.999 1.481-3.848-0.028-10.634-0.385-14.738z" fill="#FEFEFE"/> <path transform="matrix(3.5964 .044482 -.044173 3.6216 60.296 0)" d="m437.29 722.84c0.012-28.118 5.449-59.031 20.817-83.024 0.321 14.407 1.334 30.19-0.374 44.465-1.717 14.341-6.299 27.966-6.459 42.549-4.601-1.71-9.219-2.864-13.984-3.99z" fill="#C4ECFC"/> <path transform="matrix(3.5964 .044482 -.044173 3.6216 60.296 0)" d="m461.63 662.3 0.794-0.901c2.69 0.888 5.967 5.272 8.248 7.223 10.397 8.886 24.827 13.698 38.228 15.389q1.004 0.123 2.012 0.219 1.007 0.096 2.016 0.164 1.01 0.068 2.021 0.108t2.023 0.053 2.023-2e-3q1.012-0.015 2.023-0.058 1.011-0.042 2.02-0.113 1.01-0.07 2.017-0.168t2.011-0.223q1.004-0.126 2.004-0.279 1.001-0.153 1.996-0.333 0.996-0.18 1.986-0.387 0.991-0.208 1.975-0.442 0.984-0.235 1.962-0.496 0.977-0.261 1.947-0.549t1.932-0.602q0.962-0.315 1.914-0.655 0.953-0.341 1.896-0.707 0.943-0.367 1.876-0.759t1.855-0.81q0.921-0.417 1.831-0.86t1.807-0.91q0.898-0.468 1.782-0.959 0.884-0.492 1.754-1.008 0.871-0.516 1.727-1.055 0.856-0.54 1.697-1.102 0.841-0.563 1.666-1.148 0.825-0.586 1.634-1.193 0.809-0.608 1.6-1.238 0.792-0.63 1.567-1.281 0.774-0.651 1.53-1.323t1.494-1.365c4.441-4.179 7.871-10.119 12.695-13.722 0.12-0.09 0.244-0.174 0.366-0.261-1.907 15.727-6.143 31.495-9.468 46.999l-16.419 77.771-20.325 96.566c-2.931 14.13-4.822 28.731-8.481 42.674-1.995-3.381-3.031-7.204-4.211-10.924-5.064-21.742-11.973-43.188-17.661-64.795-5.767-21.909-10.736-44.028-16.325-65.984-9.368-36.805-19.111-73.395-27.039-110.55z" fill="#FA7561"/> <path transform="matrix(3.5964 .044482 -.044173 3.6216 60.296 0)" d="m717.3 654.39c4.983 0.132 9.933-0.152 14.907-0.41 15.432 0.091 31.882-1.343 47.167 0.223 7.472 0.324 14.906-0.19 22.37-0.097-0.237 10.762 0.66 22.221-0.287 32.884-0.845 8.828-0.362 17.975-0.244 26.847l-83.235 3e-3 -0.12-0.833c1.244-19.451-1.52-39.077-0.558-58.617z" fill="#C4ECFC"/> <path transform="matrix(3.5964 .044482 -.044173 3.6216 60.296 0)" d="m606.98 655.97c3.196 0.816 4.926 3.45 6.544 6.183 9.905 16.728 16.12 50.608 15.915 69.893-2.162-0.599-4.428-0.767-6.651-1.031-2.042-26.109-7.327-50.322-15.808-75.045z" fill="#FEFEFE"/> <path transform="matrix(3.5964 .044482 -.044173 3.6216 60.296 0)" d="m845.84 687.47c-1.154-0.794-2.104-1.213-2.738-2.494-2.058-4.159-0.99-9.826 0.346-14.072 0.573 0.251 0.808 0.334 1.379 0.681 1.533 0.928 2.125 2.155 2.566 3.857 0.977 3.765 0.315 8.635-1.553 12.028z" fill="#96C6E4"/> <path transform="matrix(3.5964 .044482 -.044173 3.6216 60.296 0)" d="m801.45 686.99c0.818 13.794 0.311 27.706 0.611 41.522l-51.209 3e-3c-9.648-0.018-20.153 0.56-29.677-0.751-2.426-0.334-2.666-0.694-4.075-2.552 1.489-3.179 0.898-7.87 0.871-11.372l83.235-3e-3c-0.118-8.872-0.601-18.019 0.244-26.847z" fill="#96C6E4"/> <path transform="matrix(3.5964 .044482 -.044173 3.6216 60.296 0)" d="m841.1 692.42c-3.254 0.636-7.625 1.603-10.799 0.329-2.485-0.998-3.189-2.525-4.231-4.891 3.457-0.116 9.514-0.973 12.582 0.702 1.744 0.953 1.879 2.117 2.448 3.86z" fill="#96C6E4"/> <path transform="matrix(3.5964 .044482 -.044173 3.6216 60.296 0)" d="m861.72 692.46c-3.744 0.114-9.294 0.916-12.537-1.203-0.507-1.654-0.303-1.646 0.465-3.23 3.678-0.232 8.963-1.252 12.264 0.693 0.752 1.756 0.398 1.988-0.192 3.74z" fill="#96C6E4"/> <path transform="matrix(3.5964 .044482 -.044173 3.6216 60.296 0)" d="m846.7 706.35c-1.783 0.071-1.955 0.128-3.439-0.826-2.372-3.863-1.384-9.135-1.078-13.477 1.329 0.252 2.765 0.465 3.712 1.538 2.726 3.087 1.272 9.101 0.805 12.765z" fill="#96C6E4"/> <path transform="matrix(3.5964 .044482 -.044173 3.6216 60.296 0)" d="m702.88 701.03c4.392-1.461 10.045-1.12 14.693-1.186-0.11 4.357-0.457 8.848 0.285 13.157l0.12 0.833c0.027 3.502 0.618 8.193-0.871 11.372-5.028-7.883-9.585-16.063-14.227-24.176z" fill="#73B675"/> <path transform="matrix(3.5964 .044482 -.044173 3.6216 60.296 0)" d="m602.91 736.32c0.885-6.994 3.423-13.516 7.227-19.439l2.239 15.146c-3.498 1.085-6.315 2.442-9.466 4.293z" fill="#C4ECFC"/> <path transform="matrix(3.5964 .044482 -.044173 3.6216 60.296 0)" d="m612.37 732.02c3.461-0.563 6.925-0.778 10.42-1.008 2.223 0.264 4.489 0.432 6.651 1.031 7.289 2.869 12.21 6.788 15.449 14.07 1.999 4.496 2.712 9.113 3.375 13.954-2.206 6.117-3.998 11.083-8.384 16.028l-0.564 0.647c-6.17 3.175-12.613 6.223-19.705 6.35-11.028 0.198-17.121-9.403-24.241-16.067-0.103-0.095-0.207-0.189-0.31-0.284-0.345-2.546-0.706-5.111-0.91-7.673-0.751-9.436 2.823-15.772 8.753-22.755 3.151-1.851 5.968-3.208 9.466-4.293zm4.588 9.845c-5.882 3.19-9.948 6.028-11.999 12.77-0.496 1.628-0.898 3.286-1.298 4.939 2.19 5.527 4.454 10.168 10.25 12.714 3.2 1.405 6.871 1.684 10.324 1.643 5.115-2.281 9.219-4.826 11.472-10.271q0.314-0.756 0.549-1.54t0.387-1.588 0.221-1.619q0.069-0.816 0.053-1.634-0.017-0.818-0.117-1.63-0.101-0.812-0.285-1.61-0.184-0.797-0.449-1.571t-0.609-1.517q-0.184-0.382-0.388-0.754t-0.427-0.733q-0.223-0.36-0.465-0.709-0.242-0.348-0.502-0.683t-0.537-0.656q-0.278-0.321-0.572-0.627t-0.603-0.595q-0.31-0.29-0.634-0.563-0.325-0.273-0.663-0.529-0.339-0.256-0.69-0.493-0.352-0.237-0.716-0.456-0.363-0.218-0.738-0.417-0.374-0.199-0.759-0.378-0.384-0.179-0.778-0.338-0.393-0.158-0.795-0.296-0.401-0.137-0.809-0.253c-2.722-0.799-5.619-0.792-8.423-0.606z" fill="#FAC679"/> <path transform="matrix(3.5964 .044482 -.044173 3.6216 60.296 0)" d="m404.29 800.41c0.572-0.436 1.11-1.12 1.597-1.637 2.331-6.639-1.227-16.884-2.067-23.953-1.15-9.672-0.209-21.283 6.191-29.119 6.41-7.848 16.072-10.361 25.711-11.426 7.088 25.071 16.022 49.747 22.131 75.067-3.028 20.798-11.495 42.047-24.198 58.717-1.019-0.835-2.024-1.688-2.963-2.614-12.224-12.055-26.512-47.832-26.402-65.035z" fill="#FEFEFE"/> <path transform="matrix(3.5964 .044482 -.044173 3.6216 60.296 0)" d="m435.72 734.28 4.574 0.692c0.465 5.137 15.38 53.729 16.919 55.353 0.12 0.127 0.272 0.22 0.408 0.329l0.565-0.336c0.594 2.182 0.716 3.309 2.366 5.012 0.211 4.393-1.49 9.777-2.701 14.017-6.109-25.32-15.043-49.996-22.131-75.067z" fill="#C4ECFC"/> <path transform="matrix(3.5964 .044482 -.044173 3.6216 60.296 0)" d="m440.3 734.97c8.124 2.354 15.206 6.4 19.4 14.013 4.764 8.646 3.845 18.209 2.565 27.61l-4.269 4.144 0.196 9.579-0.565 0.336c-0.136-0.109-0.288-0.202-0.408-0.329-1.539-1.624-16.454-50.216-16.919-55.353z" fill="#FEFEFE"/> <path transform="matrix(3.5964 .044482 -.044173 3.6216 60.296 0)" d="m603.66 759.58c0.4-1.653 0.802-3.311 1.298-4.939 2.051-6.742 6.117-9.58 11.999-12.77 2.804-0.186 5.701-0.193 8.423 0.606q0.408 0.116 0.809 0.253 0.402 0.138 0.795 0.296 0.394 0.159 0.778 0.338 0.385 0.179 0.759 0.378 0.375 0.199 0.739 0.417 0.363 0.219 0.715 0.456 0.351 0.237 0.69 0.493 0.338 0.256 0.663 0.529 0.324 0.273 0.634 0.563 0.309 0.29 0.603 0.595 0.294 0.306 0.572 0.627 0.277 0.321 0.537 0.656t0.502 0.683q0.242 0.349 0.465 0.709 0.223 0.361 0.427 0.733t0.388 0.754q0.344 0.743 0.609 1.517t0.449 1.571q0.184 0.798 0.285 1.61 0.1 0.812 0.117 1.63 0.016 0.818-0.053 1.634-0.069 0.815-0.221 1.619t-0.387 1.588-0.549 1.54c-2.253 5.445-6.357 7.99-11.472 10.271-3.453 0.041-7.124-0.238-10.324-1.643-5.796-2.546-8.06-7.187-10.25-12.714z" fill="#5D90C0"/> <path transform="matrix(3.5964 .044482 -.044173 3.6216 60.296 0)" d="m648.27 760.07c0.794 6.571 1.353 12.693-3.1 18.24-2.051 2.556-4.824 4.613-7.711 6.124 0.947-2.489 1.364-5.083 1.863-7.689l0.564-0.647c4.386-4.945 6.178-9.911 8.384-16.028z" fill="#AC9F9B"/> <path transform="matrix(3.5964 .044482 -.044173 3.6216 60.296 0)" d="m595.06 766.74c0.103 0.095 0.207 0.189 0.31 0.284 7.12 6.664 13.213 16.265 24.241 16.067 7.092-0.127 13.535-3.175 19.705-6.35-0.499 2.606-0.916 5.2-1.863 7.689-6.288 2.955-12.106 4.824-19.117 4.706-9.355-1.831-14.909-5.094-21.469-11.94-1.136-2.642-1.877-5.294-2.622-8.064l0.815-2.392z" fill="#A08171"/> <path transform="matrix(3.5964 .044482 -.044173 3.6216 60.296 0)" d="m585.2 792.47c1.066-0.189 2.483-0.362 3.371-1.017 4.928-3.636 5.145-16.742 5.682-22.318 0.745 2.77 1.486 5.422 2.622 8.064-2.154 4.427-2.172 9.914-2.4 14.742 6.558 0.062 13.172-0.216 19.715-0.059-9.451 1.849-19.44-0.063-28.99 0.588z" fill="#C4ECFC"/> <path transform="matrix(3.5964 .044482 -.044173 3.6216 60.296 0)" d="m594.47 791.94c0.228-4.828 0.246-10.315 2.4-14.742 6.56 6.846 12.114 10.109 21.469 11.94l0.903 2.586-5.057 0.157c-6.543-0.157-13.157 0.121-19.715 0.059z" fill="#FEFEFE"/> <defs> <linearGradient id="a" x1="769.68" x2="802.22" y1="1041.4" y2="789.49" gradientUnits="userSpaceOnUse"> <stop stop-color="#91C69A" offset="0"/> <stop stop-color="#C7EEC6" offset="1"/> </linearGradient> </defs> <path transform="matrix(3.5964 .044482 -.044173 3.6216 60.296 0)" d="m804.16 784.82c5.967 12.985 12.08 25.837 16.562 39.431q0.556 1.649 1.076 3.309 0.521 1.66 1.007 3.331t0.937 3.351q0.451 1.681 0.867 3.37 0.416 1.69 0.796 3.388t0.725 3.403q0.344 1.706 0.653 3.418t0.582 3.43q0.273 1.719 0.51 3.443 0.237 1.723 0.438 3.451 0.201 1.729 0.365 3.461 0.165 1.732 0.293 3.467 0.129 1.735 0.221 3.473 0.092 1.737 0.147 3.476 0.056 1.74 0.075 3.479 0.02 1.74 2e-3 3.48-0.017 1.74-0.07 3.479-0.054 1.739-0.144 3.477-0.089 1.737-0.216 3.472-0.126 1.736-0.289 3.468-0.162 1.732-0.361 3.461t-0.433 3.453q-0.235 1.724-0.506 3.442-0.271 1.719-0.578 3.431-0.306 1.713-0.649 3.419-0.342 1.706-0.721 3.404-0.378 1.699-0.791 3.389-0.414 1.69-0.863 3.371t-0.933 3.352q-0.484 1.672-1.002 3.332-0.519 1.661-1.073 3.311-0.553 1.649-1.141 3.287c-3.838 10.386-9.026 20.992-15.661 29.879-13.16 17.629-29.133 25.414-17.972 49.679 4.452 9.68 11.644 21.38 18.693 29.26-0.043 0.12-0.076 0.25-0.129 0.37-0.755 1.7-1.759 2.41-3.41 3.09-17.79-8.99-48.196-5.55-67.786-9.18-1.393-1.13-1.24-2.84-1.502-4.57 1.02-20.34 18.444-42.924 27.134-60.905 4.219-8.731 7.115-17.592 9.269-27.035 1.034-4.533 2.509-9.677 2.209-14.342-0.114-1.783-0.282-1.828-1.625-3.032 7.792-2.06 15.42-4.966 21.53-10.378 6.97-6.174 11.725-14.58 13.925-23.59 2.66-10.898 1.629-22.728 1.385-33.854-0.248-11.283-0.362-22.586-0.835-33.861-0.567-13.506-1.489-26.704-0.711-40.24z" fill="url(#a)"/> <path transform="matrix(3.5964 .044482 -.044173 3.6216 60.296 0)" d="m614.18 791.88 5.057-0.157c10.651-0.017 21.093 0.237 31.671 1.547 1.602 1.53 3.268 3.025 4.776 4.647 3.808 17.226 6.587 40.256-3.439 55.739-5.606 8.658-14.576 13.969-24.57 16.018-13.351 2.738-31.395 0.561-42.908-7.099-2.865-1.906-4.506-3.871-5.198-7.298-2.133-10.558 1.398-22.344-0.812-33.052-0.123-7.535-1.686-19.498 1.516-26.29 1.047-2.222 2.699-2.745 4.917-3.467 9.55-0.651 19.539 1.261 28.99-0.588z" fill="#96C6E4"/> <path transform="matrix(3.5964 .044482 -.044173 3.6216 60.296 0)" d="m460.56 795.33c2.55-0.07 4.93-0.093 7.463 0.325-1.106 16.053-3.496 33.397-10.468 48.112-3.715 10.724-8.919 21.416-16.695 29.804 3.881 1.872 7.422 3.567 11.819 3.656l0.977 3.917c-3.52-1.62-10.368-4.555-14.232-4.465-1.888 0.044-3.46 0.622-5.425 0.529l-0.405-0.829q0.888-1.589 1.7-3.218c-3.609 0.541-7.719 5.402-11.547 6.958-4.601 1.87-11.959 1.98-16.567 0.022l1.663-1.679c4.243 0.092 13.222-0.517 16.398-3.393-0.119-1.901-11.077-16.398-13.131-20.133-5.232-9.519-8.912-19.662-11.979-30.06-1.438-4.874-4.005-21.615-6.726-24.499l6.514 0.184c-1.089 0.929-1.502 0.94-1.594 2.367-0.979 15.158 17.482 54.768 27.919 65.898 1.927 2.055 3.764 3.197 6.197 4.567 0.436 0.245 0.86 0.511 1.29 0.767-0.117-0.226-0.23-0.453-0.35-0.678-3.279-6.162-9.22-10.376-12.901-16.242-10.794-17.202-15.021-37.2-19.717-56.666l3.533-0.159c-0.11 17.203 14.178 52.98 26.402 65.035 0.939 0.926 1.944 1.779 2.963 2.614 12.703-16.67 21.17-37.919 24.198-58.717 1.211-4.24 2.912-9.624 2.701-14.017z" fill="#96C6E4"/> <path transform="matrix(3.5964 .044482 -.044173 3.6216 60.296 0)" d="m399.92 800.56 0.844 0.013c4.696 19.466 8.923 39.464 19.717 56.666 3.681 5.866 9.622 10.08 12.901 16.242 0.12 0.225 0.233 0.452 0.35 0.678-0.43-0.256-0.854-0.522-1.29-0.767-2.433-1.37-4.27-2.512-6.197-4.567-10.437-11.13-28.898-50.74-27.919-65.898 0.092-1.427 0.505-1.438 1.594-2.367z" fill="#FEFEFE"/> <path transform="matrix(3.5964 .044482 -.044173 3.6216 60.296 0)" d="m354.15 995.53c1.511-1.969 2.983-3.985 4.562-5.899-25.737-27.96-49.949-57.216-74.928-85.839 21.486-22.984 43.008-45.539 65.286-67.759 10.183-10.157 19.904-20.632 30.866-29.988l0.594 194c-4.101 3.36-7.897 7.1-11.75 10.73-5.2-4.74-9.87-10.07-14.63-15.248z" fill="#73B675"/> <path transform="matrix(3.5964 .044482 -.044173 3.6216 60.296 0)" d="m674.03 831.37c13.771 20.71 39.917 74.445 57.301 87.319 11.112 8.227 24.174 10.065 37.532 8.06 1.343 1.204 1.511 1.249 1.625 3.032 0.3 4.665-1.175 9.809-2.209 14.342-2.154 9.443-5.05 18.304-9.269 27.035-8.69 17.981-26.114 40.565-27.134 60.905-1.781 10.7 1.021 32.84 6.95 42.43 1.784-0.42 3.564-2.75 4.564-4.25 0.222-0.34 0.379-0.65 0.573-1.01 3.732 0.78 9.318-0.93 13.262-1.34 8.302-0.86 47.714-4.66 53.477-2.74 0.889 0.3 1.573 0.99 2.119 1.68 0.131 0.17 0.739 0.8 0.906 0.98l0.443-3.06c3.718 18.32 4.351 38.37-2.04 56.19-0.772 2.15-1.635 5.33-2.897 7.21-0.142 0.21-0.323 0.39-0.485 0.59-5.119 4.01-36.626 1.4-44.617 1.49-11.717 0.12-23.39 0.91-35.136 0.91-6.451 0-32.261 1-36.902-1.26-0.426-0.21-1.127-1.13-1.496-1.5-2.717-7.42-3.206-45.79-3.842-55.68q-4.546-66.91-8.28-133.88c-2.141-35.836-4.613-71.535-4.445-107.46z" fill="#73B675"/> <path transform="matrix(3.5964 .044482 -.044173 3.6216 60.296 0)" d="m407.18 880.14c-0.504 0.339-1.014 0.647-1.524 0.974-1.825 1.169-3.393 1.515-5.548 1.485-2.542-0.036-3.325-0.547-4.971-2.274-0.679-2.086-0.705-3.829 0.184-5.878 0.74-1.705 2.012-3.43 3.798-4.117 1.415-0.544 2.781-0.603 4.153 0.145 2.978 1.624 4.551 4.938 5.571 7.986l-1.663 1.679z" fill="#365877"/> <path transform="matrix(3.5964 .044482 -.044173 3.6216 60.296 0)" d="m452.68 877.22c1.946-2.448 4.093-5.283 7.49-5.534 1.817-0.135 3.555 0.537 4.859 1.8 1.448 1.401 2.361 3.457 2.273 5.485-0.071 1.638-0.887 3.121-2.194 4.107-1.802 1.359-4.902 1.681-7.056 1.211-1.926-0.42-3.215-1.665-4.395-3.152l-0.977-3.917z" fill="#365877"/> <path transform="matrix(3.5964 .044482 -.044173 3.6216 60.296 0)" d="m866.23 970.16c-2.023 0.262-4.071 0.548-6.111 0.316-3.503-0.398-6.838-2.187-8.985-5.004-2.21-2.902-2.994-6.637-2.355-10.205 0.934-5.218 3.98-7.877 8.09-10.717 2.142-0.316 4.566-0.501 6.716-0.142 3.677 0.615 7.309 2.936 9.339 6.07q0.349 0.543 0.641 1.119 0.292 0.577 0.524 1.18 0.232 0.602 0.401 1.226 0.169 0.623 0.273 1.261 0.105 0.637 0.143 1.282 0.039 0.645 0.012 1.29t-0.12 1.284q-0.093 0.64-0.251 1.266c-1.176 4.705-4.376 7.379-8.317 9.774z" fill="#E9A461"/> <path transform="matrix(3.5964 .044482 -.044173 3.6216 60.296 0)" d="m547.4 978.46c-0.167 4e-3 -0.335 0.011-0.503 0.013-2.722 0.038-5.25-0.489-7.154-2.599-1.161-1.285-1.613-3.061-1.508-4.762 0.259-4.191 2.315-6.311 5.232-8.949 0.145 0.014 0.29 0.026 0.435 0.042 2.945 0.336 6.311 1.485 8.124 3.972 1.05 1.441 1.385 3.174 1.09 4.919-0.602 3.557-3.025 5.349-5.716 7.364z" fill="#365877"/> <path transform="matrix(3.5964 .044482 -.044173 3.6216 60.296 0)" d="m354.15 995.53c4.76 5.178 9.43 10.508 14.63 15.248 3.853-3.63 7.649-7.37 11.75-10.73 7.586-7.401 23.08-26.76 33.9-26.726 2.615 9e-3 4.827 1.008 6.649 2.878 1.649 1.694 2.551 3.784 3.429 5.94-2.681 9.012-8.232 15.753-12.997 23.688l-3.605 5.15c13.367 2.4 35.904 3.22 44.24 15.71 1.544 2.31 2.082 5.28 1.549 8-0.205 1.05-0.606 2.26-1.145 3.19-2.752 2.04-4.717 2.24-8.185 1.73-6.711-0.98-18.672-12.02-22.575-9.24 0.101 2.85 2.323 5.13 4.33 6.96 4.534 4.14 12.203 8.83 18.593 8.48 1.369-0.08 2.26-0.5 3.234-1.47 0.658 1.56 0.705 2.59 2.357 3.3 3.947 1.7 5.681 0.8 7.775 5.43 1.631 3.61 1.778 7.98 0.287 11.66-0.968 2.39-2.761 4.34-5.225 5.2-2.112 0.73-4.296 0.49-6.371-0.21 0.606-0.3 0.759-0.75 1.127-1.3-0.205-0.82-0.421-1.55-0.877-2.27-4.603-7.25-38.937-25.46-48.189-27.66l-1.552 2.61c0.296 0.75 0.612 1.23 1.221 1.77 1.203 1.07 45.821 27.01 46.008 27.06 0.486 0.12 1.711-0.16 2.262-0.21-0.256 3.85-0.233 10.66-3.219 13.58-0.931 0.91-2.463 1.87-3.834 1.57-0.63-0.14-1.017-0.37-1.572-0.65-3.541-2.26-6.766-4.94-10.349-7.15-6.401-3.95-34.713-20.42-40.763-19.15-0.557 0.12-0.778 0.25-1.337 0.48l-0.476 1.2c1.267 2.51 3.503 3.99 5.842 5.43 7.698 4.75 16.606 7.98 24.687 12.09 4.46 2.27 8.909 5.62 13.53 7.39 1.151 0.44 2.101 0.5 3.312 0.24-4.918 3.63-1.77 14.26-11.186 12.91-0.501-0.07-1.004-0.15-1.494-0.28-7.282-3.78-13.787-8.56-21.464-11.67-16.374-6.63-34.37-9.5-51.105-15.48-0.143 0-0.288 0.02-0.428-0.01-4.883-0.82-27.773-27.4-31.003-32.47 4.621-3.64 8.785-9.12 12.74-13.51q12.838-14.28 25.499-28.708z" fill="#FCDAB7"/> <path transform="matrix(3.5964 .044482 -.044173 3.6216 60.296 0)" d="m160.82 1023.8c-2.226 0.95-4.931 1.02-7.263 0.43-2.905-0.73-5.158-2.64-6.539-5.27-1.782-3.39-2.053-7.47-0.933-11.11 1.557-5.06 4.847-7.03 9.276-9.296q1.187-0.047 2.374-0.045c3.525 0.016 6.404 1.131 8.845 3.741 2.858 3.07 4.173 7.17 4.02 11.33-0.112 3.02-1.131 6.13-3.437 8.19-1.921 1.71-3.817 2.27-6.343 2.03z" fill="#96C6E4"/> <path transform="matrix(3.5964 .044482 -.044173 3.6216 60.296 0)" d="m259 999.85c7.543 7.192 41.557 43.042 47.527 44.552 3.604-0.3 5.943-2.38 8.236-5 0.456-0.52 0.79-1.06 1.147-1.65 3.23 5.07 26.12 31.65 31.003 32.47 0.14 0.03 0.285 0.01 0.428 0.01 1.631 4 6.465 6.23 10.248 7.8 3.967 1.65 10.813 4.19 15.082 3.07-1.71 15.66-2.529 32.03-5.3 47.49l-0.758 0.06 0.142 0.82c-0.965 0.53-1.999 0.72-3.088 0.82-13.679 1.22-27.983 0.73-41.725 0.77q-32.822 0.32-65.641-0.2c-14.901-0.21-29.709 1.11-44.634-0.05-2.179-0.17-4.007-0.47-5.727-1.88-0.141-0.08-0.292-0.15-0.421-0.25-1.999-1.53-2.956-4.88-3.557-7.21 1.468 2.44 3.106 5.98 5.709 7.23 0.531 0.24 1.102 0.49 1.666 0.63 4.616 1.17 39.564 1.53 42.899-0.35 3.448-7.01 2.912-15.81 5.581-23.23 8.733-24.29 22.607-34.12 24.983-63.19-0.623-0.14-0.815-0.14-1.433-0.53-8.405-5.2-21.262-32.42-22.367-42.182z" fill="#73B675"/> <path transform="matrix(3.5964 .044482 -.044173 3.6216 60.296 0)" d="m407.91 1011 3.605-5.15c9.26-0.03 56.592-2.37 61.681 2.78 3.738 3.79 3.069 11.88 2.88 16.79-0.157 4.07-1.221 8.44-4.236 11.37-3.684 3.58-8.141 3.33-12.888 3.09-2.116-0.11-3.72-0.21-5.658-1.14l-0.74-0.84c0.539-0.93 0.94-2.14 1.145-3.19 0.533-2.72-5e-3 -5.69-1.549-8-8.336-12.49-30.873-13.31-44.24-15.71z" fill="#365877"/> <path transform="matrix(3.5964 .044482 -.044173 3.6216 60.296 0)" d="m662.48 1037.5c-1.178 0.89-2.037 1.31-3.512 1.51-9.631 1.31-19.915 0.24-29.637 0.35-13.477 0.16-27.424 1.45-40.848 0.19-3.231-0.3-8.103-0.5-10.191-3.3-3.729-5.01-3.622-15.44-2.479-21.26 0.854-4.34 2.67-6.74 6.208-9.18 14.366-0.27 28.739-0.01 43.107-0.1 10.29-0.06 20.75-0.63 31.016-0.04 3.142 0.18 9.57 0.36 11.681 2.97 3.963 4.9 3.048 15.54 2.212 21.31-0.349 2.41-1.075 5.86-3.336 7.22-1.634 0.98-2.509 0.73-4.221 0.33z" fill="#365877"/> <path transform="matrix(3.5964 .044482 -.044173 3.6216 60.296 0)" d="m447.95 1044.3c-0.974 0.97-1.865 1.39-3.234 1.47-6.39 0.35-14.059-4.34-18.593-8.48-2.007-1.83-4.229-4.11-4.33-6.96 3.903-2.78 15.864 8.26 22.575 9.24 3.468 0.51 5.433 0.31 8.185-1.73l0.74 0.84c-1.31 1.79-3.077 5.07-5.343 5.62z" fill="#E9A461"/> <path transform="matrix(3.5964 .044482 -.044173 3.6216 60.296 0)" d="m738.82 1074.5c-5.929-9.59-8.731-31.73-6.95-42.43 0.262 1.73 0.109 3.44 1.502 4.57 19.59 3.63 49.996 0.19 67.786 9.18 1.651-0.68 2.655-1.39 3.41-3.09 0.053-0.12 0.086-0.25 0.129-0.37 3.988 7.36 7.214 14.3 9.467 22.4l-0.443 3.06c-0.167-0.18-0.775-0.81-0.906-0.98-0.546-0.69-1.23-1.38-2.119-1.68-5.763-1.92-45.175 1.88-53.477 2.74-3.944 0.41-9.53 2.12-13.262 1.34-0.194 0.36-0.351 0.67-0.573 1.01-1 1.5-2.78 3.83-4.564 4.25z" fill="#8FC498"/> <path transform="matrix(3.5964 .044482 -.044173 3.6216 60.296 0)" d="m446.77 1069.7c-0.551 0.05-1.776 0.33-2.262 0.21-0.187-0.05-44.805-25.99-46.008-27.06-0.609-0.54-0.925-1.02-1.221-1.77l1.552-2.61c9.252 2.2 43.586 20.41 48.189 27.66 0.456 0.72 0.672 1.45 0.877 2.27-0.368 0.55-0.521 1-1.127 1.3z" fill="#FAC679"/> <path transform="matrix(3.5964 .044482 -.044173 3.6216 60.296 0)" d="m548.15 1063.8c-1.128 1.06-2.415 1.81-3.968 2.11-1.414 0.26-2.423 0.08-3.502-0.91-1.076-0.99-1.416-3.02-1.538-4.38-0.465-5.19 1.086-7.65 4.286-11.4 1.786 0.85 3.774 1.14 5.539 2.14 2.016 1.15 3.506 2.68 4.047 4.98 0.566 2.41 0.273 4.37-0.961 6.48-1.765 1.18-1.803 1.22-3.903 0.98z" fill="#365877"/> <path transform="matrix(3.5964 .044482 -.044173 3.6216 60.296 0)" d="m432.6 1084.8c-1.211 0.26-2.161 0.2-3.312-0.24-4.621-1.77-9.07-5.12-13.53-7.39-8.081-4.11-16.989-7.34-24.687-12.09-2.339-1.44-4.575-2.92-5.842-5.43l0.476-1.2c0.559-0.23 0.78-0.36 1.337-0.48 6.05-1.27 34.362 15.2 40.763 19.15 3.583 2.21 6.808 4.89 10.349 7.15-1.2 0.95-1.77 1.83-3.439 1.51-0.674-0.13-1.501-0.66-2.115-0.98z" fill="#E9A461"/> <path transform="matrix(3.5964 .044482 -.044173 3.6216 60.296 0)" d="m347.35 1070.2c16.735 5.98 34.731 8.85 51.105 15.48 7.677 3.11 14.182 7.89 21.464 11.67l-2.209 0.77c-2.295-0.36-43.2-15.95-45.03-17.05-4.269 1.12-11.115-1.42-15.082-3.07-3.783-1.57-8.617-3.8-10.248-7.8z" fill="#FAC679"/> <path transform="matrix(3.5964 .044482 -.044173 3.6216 60.296 0)" d="m367.38 1128.6c0.153 0.17 0.297 0.35 0.459 0.52 1.477 1.47 2.5 1.43 4.484 1.28 7.372-0.57 15.002 0.05 22.408 0.1h42.477l173.77-0.03 53.596 0.04c6.586 0.02 13.464 0.85 19.984 0.44 2.746-0.17 4.212-0.53 6.04-2.56 0.369 0.37 1.07 1.29 1.496 1.5 4.641 2.26 30.451 1.26 36.902 1.26 11.746 0 23.419-0.79 35.136-0.91 7.991-0.09 39.498 2.52 44.617-1.49 7.454 5.68 30.708-0.32 40.675 1.69 2.447 0.5 4.731 1.63 6.042 3.83 3.133 5.28 1.414 17.5 0.102 23.38-0.49 0.35-0.975 0.7-1.534 0.94-5.94 2.49-167.33 0.98-187.9 0.99l-496.34 0.1c-3.294-0.02-6.57 0.14-9.636-1.24-0.72-3.36-0.527-7.47-0.689-10.93-0.219-4.67-0.823-11.33 2.784-14.91 5.361-5.33 25.58-1.05 33.134-1.13 3.472-0.03 7.983 0.07 10.562-2.53 1.72 1.41 3.548 1.71 5.727 1.88 14.925 1.16 29.733-0.16 44.634 0.05q32.819 0.52 65.641 0.2c13.742-0.04 28.046 0.45 41.725-0.77 1.089-0.1 2.123-0.29 3.088-0.82l-0.142-0.82 0.758-0.06z" fill="#5D90C0"/> </svg>